<svg xmlns="http://www.w3.org/2000/svg" xmlns:xlink="http://www.w3.org/1999/xlink" contentStyleType="text/css" data-diagram-type="CLASS" height="127px" preserveAspectRatio="none" style="width:651px;height:127px;background:#FFFFFF;" version="1.1" viewBox="0 0 651 127" width="651px" zoomAndPan="magnify"><defs/><g><!--class Phase--><g class="entity" data-entity="Phase" data-source-line="1" data-uid="ent0002" id="entity_Phase"><rect fill="#F1F1F1" height="80.5938" rx="2.5" ry="2.5" style="stroke:#181818;stroke-width:0.5;" width="361.8428" x="7" y="23.3"/><ellipse cx="162.7705" cy="39.3" fill="#ADD1B2" rx="11" ry="11" style="stroke:#181818;stroke-width:1;"/><path d="M165.7393,44.9406 Q165.1611,45.2375 164.5205,45.3781 Q163.8799,45.5344 163.1768,45.5344 Q160.6768,45.5344 159.3486,43.8938 Q158.0361,42.2375 158.0361,39.1125 Q158.0361,35.9875 159.3486,34.3313 Q160.6768,32.675 163.1768,32.675 Q163.8799,32.675 164.5205,32.8313 Q165.1768,32.9875 165.7393,33.2844 L165.7393,36.0031 Q165.1143,35.425 164.5205,35.1594 Q163.9268,34.8781 163.3018,34.8781 Q161.958,34.8781 161.2705,35.9563 Q160.583,37.0188 160.583,39.1125 Q160.583,41.2063 161.2705,42.2844 Q161.958,43.3469 163.3018,43.3469 Q163.9268,43.3469 164.5205,43.0813 Q165.1143,42.8 165.7393,42.2219 L165.7393,44.9406 Z " fill="#000000"/><text fill="#000000" font-family="sans-serif" font-size="14" lengthAdjust="spacing" textLength="41.8018" x="183.2705" y="44.1467">Phase</text><line style="stroke:#181818;stroke-width:0.5;" x1="8" x2="367.8428" y1="55.3" y2="55.3"/><ellipse cx="18" cy="68.9484" fill="none" rx="3" ry="3" style="stroke:#038048;stroke-width:1;"/><text fill="#000000" font-family="sans-serif" font-size="14" lengthAdjust="spacing" textLength="335.8428" x="27" y="72.2951">transport_type: enum {CREDIT, TRANSACTION}</text><ellipse cx="18" cy="85.2453" fill="none" rx="3" ry="3" style="stroke:#038048;stroke-width:1;"/><text fill="#000000" font-family="sans-serif" font-size="14" lengthAdjust="spacing" textLength="105.3145" x="27" y="88.592">credits: uint8_t</text><line style="stroke:#181818;stroke-width:0.5;" x1="8" x2="367.8428" y1="95.8938" y2="95.8938"/></g><!--class sync_enum--><g class="entity" data-entity="sync_enum" data-source-line="7" data-uid="ent0003" id="entity_sync_enum"><rect fill="#F1F1F1" height="113.1875" rx="2.5" ry="2.5" style="stroke:#181818;stroke-width:0.5;" width="240.3408" x="403.75" y="7"/><ellipse cx="480.0972" cy="23" fill="#EB937F" rx="11" ry="11" style="stroke:#181818;stroke-width:1;"/><path d="M484.2065,29 L476.4878,29 L476.4878,16.6094 L484.2065,16.6094 L484.2065,18.7656 L478.9409,18.7656 L478.9409,21.4375 L483.7065,21.4375 L483.7065,23.5938 L478.9409,23.5938 L478.9409,26.8438 L484.2065,26.8438 L484.2065,29 Z " fill="#000000"/><text fill="#000000" font-family="sans-serif" font-size="14" lengthAdjust="spacing" textLength="79.1465" x="500.5972" y="27.8467">sync_enum</text><line style="stroke:#181818;stroke-width:0.5;" x1="404.75" x2="643.0908" y1="39" y2="39"/><text fill="#000000" font-family="sans-serif" font-size="14" lengthAdjust="spacing" textLength="205.249" x="409.75" y="55.9951">ACCEPTED = TLM_ACCEPTED</text><text fill="#000000" font-family="sans-serif" font-size="14" lengthAdjust="spacing" textLength="190.5107" x="409.75" y="72.292">UPDATED = TLM_UPDATED</text><text fill="#000000" font-family="sans-serif" font-size="14" lengthAdjust="spacing" textLength="228.3408" x="409.75" y="88.5889">COMPLETED = TLM_COMPLETED</text><text fill="#000000" font-family="sans-serif" font-size="14" lengthAdjust="spacing" textLength="74.9424" x="409.75" y="104.8857">RETRY = 3</text><line style="stroke:#181818;stroke-width:0.5;" x1="404.75" x2="643.0908" y1="112.1875" y2="112.1875"/></g><!--SRC=[HSmz2y8m40RW_Nx5xRgvIC4X91aA_GWn3auXr805ZIL9XrBotwsnsflkvNdlkeS90SNT10ipu3Axw8qBmyj77QV15cZT-CIPIivAjKSbINCcL9LjaxxzpjjR7qE1O-_YKKT80FacJAxJdstzJ2ZbGd669rHLhNynsqKmij6Qij2s5XNVx9-pIgxaTP43f3S0]--></g></svg>