<svg xmlns="http://www.w3.org/2000/svg" xmlns:xlink="http://www.w3.org/1999/xlink" contentStyleType="text/css" data-diagram-type="SEQUENCE" height="1684px" preserveAspectRatio="none" style="width:1085px;height:1684px;background:#FFFFFF;" version="1.1" viewBox="0 0 1085 1684" width="1085px" zoomAndPan="magnify"><defs/><g><rect fill="#FFFFFF" height="187.8672" style="stroke:#DADCE0;stroke-width:1;" width="1046.3496" x="15" y="206.125"/><rect fill="#FFFFFF" height="156.7344" style="stroke:#DADCE0;stroke-width:1;" width="1026.3496" x="25" y="230.2578"/><rect fill="#FFFFFF" height="110.4688" style="stroke:none;stroke-width:1;" width="1026.3496" x="25" y="276.5234"/><rect fill="#FFFFFF" height="203" style="stroke:#DADCE0;stroke-width:1;" width="1046.3496" x="15" y="407.9922"/><rect fill="#FFFFFF" height="171.8672" style="stroke:#DADCE0;stroke-width:1;" width="1026.3496" x="25" y="432.125"/><rect fill="#FFFFFF" height="125.6016" style="stroke:none;stroke-width:1;" width="1026.3496" x="25" y="478.3906"/><rect fill="#FFFFFF" height="203" style="stroke:#DADCE0;stroke-width:1;" width="1053.8208" x="15" y="624.9922"/><rect fill="#FFFFFF" height="171.8672" style="stroke:#DADCE0;stroke-width:1;" width="1033.8208" x="25" y="649.125"/><rect fill="#FFFFFF" height="125.6016" style="stroke:none;stroke-width:1;" width="1033.8208" x="25" y="695.3906"/><rect fill="#FFFFFF" height="203" style="stroke:#DADCE0;stroke-width:1;" width="1046.3496" x="15" y="978.5234"/><rect fill="#FFFFFF" height="171.8672" style="stroke:#DADCE0;stroke-width:1;" width="1026.3496" x="25" y="1002.6563"/><rect fill="#FFFFFF" height="125.6016" style="stroke:none;stroke-width:1;" width="1026.3496" x="25" y="1048.9219"/><rect fill="#FFFFFF" height="203" style="stroke:#DADCE0;stroke-width:1;" width="1046.3496" x="15" y="1195.5234"/><rect fill="#FFFFFF" height="171.8672" style="stroke:#DADCE0;stroke-width:1;" width="1026.3496" x="25" y="1219.6563"/><rect fill="#FFFFFF" height="125.6016" style="stroke:none;stroke-width:1;" width="1026.3496" x="25" y="1265.9219"/><rect fill="#FFFFFF" height="203" style="stroke:#DADCE0;stroke-width:1;" width="1046.3496" x="15" y="1412.5234"/><rect fill="#FFFFFF" height="171.8672" style="stroke:#DADCE0;stroke-width:1;" width="1026.3496" x="25" y="1436.6563"/><rect fill="#FFFFFF" height="125.6016" style="stroke:none;stroke-width:1;" width="1026.3496" x="25" y="1482.9219"/><g><title>RnModel</title><rect fill="#000000" fill-opacity="0.00000" height="1579.9297" width="8" x="80.792" y="52.5938"/><line style="stroke:#DEE2E6;stroke-width:1;stroke-dasharray:5,5;" x1="84" x2="84" y1="52.5938" y2="1632.5234"/></g><g><title>RnIfxAdapter</title><rect fill="#000000" fill-opacity="0.00000" height="1579.9297" width="8" x="651.9346" y="52.5938"/><line style="stroke:#DEE2E6;stroke-width:1;stroke-dasharray:5,5;" x1="655.0688" x2="655.0688" y1="52.5938" y2="1632.5234"/></g><g class="participant participant-head" data-participant="I"><rect fill="#E3F2FD" height="46.5938" rx="2.5" ry="2.5" style="stroke:#DEE2E6;stroke-width:1;" width="79.584" x="45" y="5"/><text fill="#495057" font-family="Verdana" font-size="14" lengthAdjust="spacing" textLength="60.6348" x="54.4746" y="24.9951">RnModel</text><text fill="#495057" font-family="Verdana" font-size="14" lengthAdjust="spacing" textLength="65.584" x="52" y="41.292">(Initiator)</text></g><g class="participant participant-tail" data-participant="I"><rect fill="#E3F2FD" height="46.5938" rx="2.5" ry="2.5" style="stroke:#DEE2E6;stroke-width:1;" width="79.584" x="45" y="1631.5234"/><text fill="#495057" font-family="Verdana" font-size="14" lengthAdjust="spacing" textLength="60.6348" x="54.4746" y="1651.5186">RnModel</text><text fill="#495057" font-family="Verdana" font-size="14" lengthAdjust="spacing" textLength="65.584" x="52" y="1667.8154">(Initiator)</text></g><g class="participant participant-head" data-participant="T"><rect fill="#F3E5F5" height="46.5938" rx="2.5" ry="2.5" style="stroke:#DEE2E6;stroke-width:1;" width="105.7314" x="603.0688" y="5"/><text fill="#495057" font-family="Verdana" font-size="14" lengthAdjust="spacing" textLength="91.7314" x="610.0688" y="24.9951">RnIfxAdapter</text><text fill="#495057" font-family="Verdana" font-size="14" lengthAdjust="spacing" textLength="56.7998" x="627.5347" y="41.292">(Target)</text></g><g class="participant participant-tail" data-participant="T"><rect fill="#F3E5F5" height="46.5938" rx="2.5" ry="2.5" style="stroke:#DEE2E6;stroke-width:1;" width="105.7314" x="603.0688" y="1631.5234"/><text fill="#495057" font-family="Verdana" font-size="14" lengthAdjust="spacing" textLength="91.7314" x="610.0688" y="1651.5186">RnIfxAdapter</text><text fill="#495057" font-family="Verdana" font-size="14" lengthAdjust="spacing" textLength="56.7998" x="627.5347" y="1667.8154">(Target)</text></g><rect fill="#FFFFFF" height="3" style="stroke:#FFFFFF;stroke-width:1;" width="1073.8208" x="5" y="83.1602"/><line style="stroke:#000000;stroke-width:0.5;" x1="5" x2="1078.8208" y1="83.1602" y2="83.1602"/><line style="stroke:#000000;stroke-width:0.5;" x1="5" x2="1078.8208" y1="86.1602" y2="86.1602"/><rect fill="#FFFFFF" height="23.1328" style="stroke:#000000;stroke-width:1;" width="166.8135" x="458.5037" y="72.5938"/><text fill="#000000" font-family="Verdana" font-size="13" font-weight="bold" lengthAdjust="spacing" textLength="148.2876" x="464.5037" y="88.6606">Forward Path Credit</text><g class="message" data-participant-1="T" data-participant-2="I"><polygon fill="#6C757D" points="95.792,133.4258,85.792,137.4258,95.792,141.4258,91.792,137.4258" style="stroke:#6C757D;stroke-width:1;"/><line style="stroke:#6C757D;stroke-width:1;stroke-dasharray:2,2;" x1="89.792" x2="654.9346" y1="137.4258" y2="137.4258"/><text fill="#000000" font-family="Verdana" font-size="13" font-weight="bold" lengthAdjust="spacing" textLength="122.1289" x="101.792" y="132.3599">nb_transport_bw</text><text fill="#000000" font-family="Verdana" font-size="13" lengthAdjust="spacing" textLength="425.0137" x="223.9209" y="132.3599">(Phase(transport_type=CREDIT, credits=&lt;credits&gt;)) : ACCEPTED</text></g><path d="M660,110.7266 L660,150.7266 L1048,150.7266 L1048,120.7266 L1038,110.7266 L660,110.7266" fill="#FFF3CD" style="stroke:#FFEAA7;stroke-width:1;"/><path d="M1038,110.7266 L1038,120.7266 L1048,120.7266 L1038,110.7266" fill="#FFF3CD" style="stroke:#FFEAA7;stroke-width:1;"/><text fill="#856404" font-family="Verdana" font-size="13" lengthAdjust="spacing" textLength="367.5229" x="666" y="127.7935">This transaction will contain credit information for either</text><text fill="#856404" font-family="Verdana" font-size="13" lengthAdjust="spacing" textLength="335.0674" x="666" y="142.9263">CHI_REQ, CHI_RSP or CHI_DATA in the forward path</text><rect fill="#FFFFFF" height="3" style="stroke:#FFFFFF;stroke-width:1;" width="1073.8208" x="5" y="176.5586"/><line style="stroke:#000000;stroke-width:0.5;" x1="5" x2="1078.8208" y1="176.5586" y2="176.5586"/><line style="stroke:#000000;stroke-width:0.5;" x1="5" x2="1078.8208" y1="179.5586" y2="179.5586"/><rect fill="#FFFFFF" height="23.1328" style="stroke:#000000;stroke-width:1;" width="216.1855" x="433.8176" y="165.9922"/><text fill="#000000" font-family="Verdana" font-size="13" font-weight="bold" lengthAdjust="spacing" textLength="197.6597" x="439.8176" y="182.0591">Forward Path Transactions</text><path d="M15,206.125 L210.6299,206.125 L210.6299,213.2578 L200.6299,223.2578 L15,223.2578 L15,206.125" fill="#F1F3F4" style="stroke:#DADCE0;stroke-width:1;"/><rect fill="none" height="187.8672" style="stroke:#DADCE0;stroke-width:1;" width="1046.3496" x="15" y="206.125"/><text fill="#000000" font-family="Verdana" font-size="13" font-weight="bold" lengthAdjust="spacing" textLength="150.6299" x="30" y="219.1919">CHI REQ Transaction</text><path d="M25,230.2578 L89.4429,230.2578 L89.4429,237.3906 L79.4429,247.3906 L25,247.3906 L25,230.2578" fill="#F1F3F4" style="stroke:#DADCE0;stroke-width:1;"/><rect fill="none" height="156.7344" style="stroke:#DADCE0;stroke-width:1;" width="1026.3496" x="25" y="230.2578"/><text fill="#000000" font-family="Verdana" font-size="13" font-weight="bold" lengthAdjust="spacing" textLength="19.4429" x="40" y="243.3247">alt</text><text fill="#000000" font-family="Verdana" font-size="11" font-weight="bold" lengthAdjust="spacing" textLength="67.5361" x="104.4429" y="242.4683">[Accepted]</text><g class="message" data-participant-1="I" data-participant-2="T"><polygon fill="#6C757D" points="643.9346,264.5234,653.9346,268.5234,643.9346,272.5234,647.9346,268.5234" style="stroke:#6C757D;stroke-width:1;"/><line style="stroke:#6C757D;stroke-width:1;" x1="84.792" x2="649.9346" y1="268.5234" y2="268.5234"/><text fill="#000000" font-family="Verdana" font-size="13" font-weight="bold" lengthAdjust="spacing" textLength="118.479" x="91.792" y="263.4575">nb_transport_fw</text><text fill="#000000" font-family="Verdana" font-size="13" lengthAdjust="spacing" textLength="341.0596" x="210.271" y="263.4575">(Phase(transport_type=TRANSACTION)) : ACCEPTED</text></g><line style="stroke:#DADCE0;stroke-width:1;stroke-dasharray:2,2;" x1="25" x2="1051.3496" y1="277.5234" y2="277.5234"/><text fill="#000000" font-family="Verdana" font-size="11" font-weight="bold" lengthAdjust="spacing" textLength="43.8389" x="30" y="287.7339">[Retry]</text><g class="message" data-participant-1="I" data-participant-2="T"><polygon fill="#6C757D" points="643.9346,341.7266,653.9346,345.7266,643.9346,349.7266,647.9346,345.7266" style="stroke:#6C757D;stroke-width:1;"/><line style="stroke:#6C757D;stroke-width:1;" x1="84.792" x2="649.9346" y1="345.7266" y2="345.7266"/><text fill="#000000" font-family="Verdana" font-size="13" font-weight="bold" lengthAdjust="spacing" textLength="118.479" x="91.792" y="340.6606">nb_transport_fw</text><text fill="#000000" font-family="Verdana" font-size="13" lengthAdjust="spacing" textLength="313.9551" x="210.271" y="340.6606">(Phase(transport_type=TRANSACTION)) : RETRY</text></g><path d="M660,296.3281 L660,381.3281 L1035,381.3281 L1035,306.3281 L1025,296.3281 L660,296.3281" fill="#FFF3CD" style="stroke:#FFEAA7;stroke-width:1;"/><path d="M1025,296.3281 L1025,306.3281 L1035,306.3281 L1025,296.3281" fill="#FFF3CD" style="stroke:#FFEAA7;stroke-width:1;"/><text fill="#856404" font-family="Verdana" font-size="13" lengthAdjust="spacing" textLength="334.5977" x="666" y="313.395">For any given request, the initiator may or may not</text><text fill="#856404" font-family="Verdana" font-size="13" lengthAdjust="spacing" textLength="291.0845" x="666" y="328.5278">retry the transaction right away or not at all.</text><text fill="#856404" font-family="Verdana" font-size="13" lengthAdjust="spacing" textLength="4.1323" x="666" y="343.6606">&#160;</text><text fill="#856404" font-family="Verdana" font-size="13" lengthAdjust="spacing" textLength="316.1323" x="666" y="358.7935">E.g. The initiator still attempts to send a request</text><text fill="#856404" font-family="Verdana" font-size="13" lengthAdjust="spacing" textLength="354.415" x="666" y="373.9263">w/o enough credit (can be used mainly for debugging)</text><path d="M15,407.9922 L224.7471,407.9922 L224.7471,415.125 L214.7471,425.125 L15,425.125 L15,407.9922" fill="#F1F3F4" style="stroke:#DADCE0;stroke-width:1;"/><rect fill="none" height="203" style="stroke:#DADCE0;stroke-width:1;" width="1046.3496" x="15" y="407.9922"/><text fill="#000000" font-family="Verdana" font-size="13" font-weight="bold" lengthAdjust="spacing" textLength="164.7471" x="30" y="421.0591">CHI WDAT Transaction</text><path d="M25,432.125 L89.4429,432.125 L89.4429,439.2578 L79.4429,449.2578 L25,449.2578 L25,432.125" fill="#F1F3F4" style="stroke:#DADCE0;stroke-width:1;"/><rect fill="none" height="171.8672" style="stroke:#DADCE0;stroke-width:1;" width="1026.3496" x="25" y="432.125"/><text fill="#000000" font-family="Verdana" font-size="13" font-weight="bold" lengthAdjust="spacing" textLength="19.4429" x="40" y="445.1919">alt</text><text fill="#000000" font-family="Verdana" font-size="11" font-weight="bold" lengthAdjust="spacing" textLength="67.5361" x="104.4429" y="444.3354">[Accepted]</text><g class="message" data-participant-1="I" data-participant-2="T"><polygon fill="#6C757D" points="643.9346,466.3906,653.9346,470.3906,643.9346,474.3906,647.9346,470.3906" style="stroke:#6C757D;stroke-width:1;"/><line style="stroke:#6C757D;stroke-width:1;" x1="84.792" x2="649.9346" y1="470.3906" y2="470.3906"/><text fill="#000000" font-family="Verdana" font-size="13" font-weight="bold" lengthAdjust="spacing" textLength="118.479" x="91.792" y="465.3247">nb_transport_fw</text><text fill="#000000" font-family="Verdana" font-size="13" lengthAdjust="spacing" textLength="341.0596" x="210.271" y="465.3247">(Phase(transport_type=TRANSACTION)) : ACCEPTED</text></g><line style="stroke:#DADCE0;stroke-width:1;stroke-dasharray:2,2;" x1="25" x2="1051.3496" y1="479.3906" y2="479.3906"/><text fill="#000000" font-family="Verdana" font-size="11" font-weight="bold" lengthAdjust="spacing" textLength="43.8389" x="30" y="489.6011">[Retry]</text><g class="message" data-participant-1="I" data-participant-2="T"><polygon fill="#6C757D" points="643.9346,551.1602,653.9346,555.1602,643.9346,559.1602,647.9346,555.1602" style="stroke:#6C757D;stroke-width:1;"/><line style="stroke:#6C757D;stroke-width:1;" x1="84.792" x2="649.9346" y1="555.1602" y2="555.1602"/><text fill="#000000" font-family="Verdana" font-size="13" font-weight="bold" lengthAdjust="spacing" textLength="118.479" x="91.792" y="550.0942">nb_transport_fw</text><text fill="#000000" font-family="Verdana" font-size="13" lengthAdjust="spacing" textLength="313.9551" x="210.271" y="550.0942">(Phase(transport_type=TRANSACTION)) : RETRY</text></g><path d="M660,498.1953 L660,598.1953 L1035,598.1953 L1035,508.1953 L1025,498.1953 L660,498.1953" fill="#FFF3CD" style="stroke:#FFEAA7;stroke-width:1;"/><path d="M1025,498.1953 L1025,508.1953 L1035,508.1953 L1025,498.1953" fill="#FFF3CD" style="stroke:#FFEAA7;stroke-width:1;"/><text fill="#856404" font-family="Verdana" font-size="13" lengthAdjust="spacing" textLength="331.8364" x="666" y="515.2622">For any given data, the initiator must always retry.</text><text fill="#856404" font-family="Verdana" font-size="13" lengthAdjust="spacing" textLength="325.2539" x="666" y="530.395">The initiator may or may not retry the transaction</text><text fill="#856404" font-family="Verdana" font-size="13" lengthAdjust="spacing" textLength="73.0679" x="666" y="545.5278">right away.</text><text fill="#856404" font-family="Verdana" font-size="13" lengthAdjust="spacing" textLength="4.1323" x="666" y="560.6606">&#160;</text><text fill="#856404" font-family="Verdana" font-size="13" lengthAdjust="spacing" textLength="316.1323" x="666" y="575.7935">E.g. The initiator still attempts to send a request</text><text fill="#856404" font-family="Verdana" font-size="13" lengthAdjust="spacing" textLength="354.415" x="666" y="590.9263">w/o enough credit (can be used mainly for debugging)</text><path d="M15,624.9922 L218.9517,624.9922 L218.9517,632.125 L208.9517,642.125 L15,642.125 L15,624.9922" fill="#F1F3F4" style="stroke:#DADCE0;stroke-width:1;"/><rect fill="none" height="203" style="stroke:#DADCE0;stroke-width:1;" width="1053.8208" x="15" y="624.9922"/><text fill="#000000" font-family="Verdana" font-size="13" font-weight="bold" lengthAdjust="spacing" textLength="158.9517" x="30" y="638.0591">CHI SRSP Transaction</text><path d="M25,649.125 L89.4429,649.125 L89.4429,656.2578 L79.4429,666.2578 L25,666.2578 L25,649.125" fill="#F1F3F4" style="stroke:#DADCE0;stroke-width:1;"/><rect fill="none" height="171.8672" style="stroke:#DADCE0;stroke-width:1;" width="1033.8208" x="25" y="649.125"/><text fill="#000000" font-family="Verdana" font-size="13" font-weight="bold" lengthAdjust="spacing" textLength="19.4429" x="40" y="662.1919">alt</text><text fill="#000000" font-family="Verdana" font-size="11" font-weight="bold" lengthAdjust="spacing" textLength="67.5361" x="104.4429" y="661.3354">[Accepted]</text><g class="message" data-participant-1="I" data-participant-2="T"><polygon fill="#6C757D" points="643.9346,683.3906,653.9346,687.3906,643.9346,691.3906,647.9346,687.3906" style="stroke:#6C757D;stroke-width:1;"/><line style="stroke:#6C757D;stroke-width:1;" x1="84.792" x2="649.9346" y1="687.3906" y2="687.3906"/><text fill="#000000" font-family="Verdana" font-size="13" font-weight="bold" lengthAdjust="spacing" textLength="118.479" x="91.792" y="682.3247">nb_transport_fw</text><text fill="#000000" font-family="Verdana" font-size="13" lengthAdjust="spacing" textLength="341.0596" x="210.271" y="682.3247">(Phase(transport_type=TRANSACTION)) : ACCEPTED</text></g><line style="stroke:#DADCE0;stroke-width:1;stroke-dasharray:2,2;" x1="25" x2="1058.8208" y1="696.3906" y2="696.3906"/><text fill="#000000" font-family="Verdana" font-size="11" font-weight="bold" lengthAdjust="spacing" textLength="43.8389" x="30" y="706.6011">[Retry]</text><g class="message" data-participant-1="I" data-participant-2="T"><polygon fill="#6C757D" points="643.9346,768.1602,653.9346,772.1602,643.9346,776.1602,647.9346,772.1602" style="stroke:#6C757D;stroke-width:1;"/><line style="stroke:#6C757D;stroke-width:1;" x1="84.792" x2="649.9346" y1="772.1602" y2="772.1602"/><text fill="#000000" font-family="Verdana" font-size="13" font-weight="bold" lengthAdjust="spacing" textLength="118.479" x="91.792" y="767.0942">nb_transport_fw</text><text fill="#000000" font-family="Verdana" font-size="13" lengthAdjust="spacing" textLength="313.9551" x="210.271" y="767.0942">(Phase(transport_type=TRANSACTION)) : RETRY</text></g><path d="M660,715.1953 L660,815.1953 L1042,815.1953 L1042,725.1953 L1032,715.1953 L660,715.1953" fill="#FFF3CD" style="stroke:#FFEAA7;stroke-width:1;"/><path d="M1032,715.1953 L1032,725.1953 L1042,725.1953 L1032,715.1953" fill="#FFF3CD" style="stroke:#FFEAA7;stroke-width:1;"/><text fill="#856404" font-family="Verdana" font-size="13" lengthAdjust="spacing" textLength="361.8862" x="666" y="732.2622">For any given response, the initiator must always retry.</text><text fill="#856404" font-family="Verdana" font-size="13" lengthAdjust="spacing" textLength="325.2539" x="666" y="747.395">The initiator may or may not retry the transaction</text><text fill="#856404" font-family="Verdana" font-size="13" lengthAdjust="spacing" textLength="73.0679" x="666" y="762.5278">right away.</text><text fill="#856404" font-family="Verdana" font-size="13" lengthAdjust="spacing" textLength="4.1323" x="666" y="777.6606">&#160;</text><text fill="#856404" font-family="Verdana" font-size="13" lengthAdjust="spacing" textLength="316.1323" x="666" y="792.7935">E.g. The initiator still attempts to send a request</text><text fill="#856404" font-family="Verdana" font-size="13" lengthAdjust="spacing" textLength="354.415" x="666" y="807.9263">w/o enough credit (can be used mainly for debugging)</text><rect fill="#FFFFFF" height="3" style="stroke:#FFFFFF;stroke-width:1;" width="1073.8208" x="5" y="855.5586"/><line style="stroke:#000000;stroke-width:0.5;" x1="5" x2="1078.8208" y1="855.5586" y2="855.5586"/><line style="stroke:#000000;stroke-width:0.5;" x1="5" x2="1078.8208" y1="858.5586" y2="858.5586"/><rect fill="#FFFFFF" height="23.1328" style="stroke:#000000;stroke-width:1;" width="177.6235" x="453.0986" y="844.9922"/><text fill="#000000" font-family="Verdana" font-size="13" font-weight="bold" lengthAdjust="spacing" textLength="159.0977" x="459.0986" y="861.0591">Backward Path Credit</text><g class="message" data-participant-1="I" data-participant-2="T"><polygon fill="#6C757D" points="643.9346,905.8242,653.9346,909.8242,643.9346,913.8242,647.9346,909.8242" style="stroke:#6C757D;stroke-width:1;"/><line style="stroke:#6C757D;stroke-width:1;stroke-dasharray:2,2;" x1="84.792" x2="649.9346" y1="909.8242" y2="909.8242"/><text fill="#000000" font-family="Verdana" font-size="13" font-weight="bold" lengthAdjust="spacing" textLength="118.479" x="91.792" y="904.7583">nb_transport_fw</text><text fill="#000000" font-family="Verdana" font-size="13" lengthAdjust="spacing" textLength="425.0137" x="210.271" y="904.7583">(Phase(transport_type=CREDIT, credits=&lt;credits&gt;)) : ACCEPTED</text></g><path d="M660,883.125 L660,923.125 L1048,923.125 L1048,893.125 L1038,883.125 L660,883.125" fill="#FFF3CD" style="stroke:#FFEAA7;stroke-width:1;"/><path d="M1038,883.125 L1038,893.125 L1048,893.125 L1038,883.125" fill="#FFF3CD" style="stroke:#FFEAA7;stroke-width:1;"/><text fill="#856404" font-family="Verdana" font-size="13" lengthAdjust="spacing" textLength="367.5229" x="666" y="900.1919">This transaction will contain credit information for either</text><text fill="#856404" font-family="Verdana" font-size="13" lengthAdjust="spacing" textLength="346.4233" x="666" y="915.3247">CHI_SNP, CHI_RSP or CHI_DATA in the backward path</text><rect fill="#FFFFFF" height="3" style="stroke:#FFFFFF;stroke-width:1;" width="1073.8208" x="5" y="948.957"/><line style="stroke:#000000;stroke-width:0.5;" x1="5" x2="1078.8208" y1="948.957" y2="948.957"/><line style="stroke:#000000;stroke-width:0.5;" x1="5" x2="1078.8208" y1="951.957" y2="951.957"/><rect fill="#FFFFFF" height="23.1328" style="stroke:#000000;stroke-width:1;" width="226.9956" x="428.4126" y="938.3906"/><text fill="#000000" font-family="Verdana" font-size="13" font-weight="bold" lengthAdjust="spacing" textLength="208.4697" x="434.4126" y="954.4575">Backward Path Transactions</text><path d="M15,978.5234 L210.4585,978.5234 L210.4585,985.6563 L200.4585,995.6563 L15,995.6563 L15,978.5234" fill="#F1F3F4" style="stroke:#DADCE0;stroke-width:1;"/><rect fill="none" height="203" style="stroke:#DADCE0;stroke-width:1;" width="1046.3496" x="15" y="978.5234"/><text fill="#000000" font-family="Verdana" font-size="13" font-weight="bold" lengthAdjust="spacing" textLength="150.4585" x="30" y="991.5903">CHI SNP Transaction</text><path d="M25,1002.6563 L89.4429,1002.6563 L89.4429,1009.7891 L79.4429,1019.7891 L25,1019.7891 L25,1002.6563" fill="#F1F3F4" style="stroke:#DADCE0;stroke-width:1;"/><rect fill="none" height="171.8672" style="stroke:#DADCE0;stroke-width:1;" width="1026.3496" x="25" y="1002.6563"/><text fill="#000000" font-family="Verdana" font-size="13" font-weight="bold" lengthAdjust="spacing" textLength="19.4429" x="40" y="1015.7231">alt</text><text fill="#000000" font-family="Verdana" font-size="11" font-weight="bold" lengthAdjust="spacing" textLength="67.5361" x="104.4429" y="1014.8667">[Accepted]</text><g class="message" data-participant-1="T" data-participant-2="I"><polygon fill="#6C757D" points="95.792,1036.9219,85.792,1040.9219,95.792,1044.9219,91.792,1040.9219" style="stroke:#6C757D;stroke-width:1;"/><line style="stroke:#6C757D;stroke-width:1;" x1="89.792" x2="654.9346" y1="1040.9219" y2="1040.9219"/><text fill="#000000" font-family="Verdana" font-size="13" font-weight="bold" lengthAdjust="spacing" textLength="122.1289" x="101.792" y="1035.856">nb_transport_bw</text><text fill="#000000" font-family="Verdana" font-size="13" lengthAdjust="spacing" textLength="341.0596" x="223.9209" y="1035.856">(Phase(transport_type=TRANSACTION)) : ACCEPTED</text></g><line style="stroke:#DADCE0;stroke-width:1;stroke-dasharray:2,2;" x1="25" x2="1051.3496" y1="1049.9219" y2="1049.9219"/><text fill="#000000" font-family="Verdana" font-size="11" font-weight="bold" lengthAdjust="spacing" textLength="43.8389" x="30" y="1060.1323">[Retry]</text><g class="message" data-participant-1="T" data-participant-2="I"><polygon fill="#6C757D" points="95.792,1121.6914,85.792,1125.6914,95.792,1129.6914,91.792,1125.6914" style="stroke:#6C757D;stroke-width:1;"/><line style="stroke:#6C757D;stroke-width:1;" x1="89.792" x2="654.9346" y1="1125.6914" y2="1125.6914"/><text fill="#000000" font-family="Verdana" font-size="13" font-weight="bold" lengthAdjust="spacing" textLength="122.1289" x="101.792" y="1120.6255">nb_transport_bw</text><text fill="#000000" font-family="Verdana" font-size="13" lengthAdjust="spacing" textLength="313.9551" x="223.9209" y="1120.6255">(Phase(transport_type=TRANSACTION)) : RETRY</text></g><path d="M660,1068.7266 L660,1168.7266 L1035,1168.7266 L1035,1078.7266 L1025,1068.7266 L660,1068.7266" fill="#FFF3CD" style="stroke:#FFEAA7;stroke-width:1;"/><path d="M1025,1068.7266 L1025,1078.7266 L1035,1078.7266 L1025,1068.7266" fill="#FFF3CD" style="stroke:#FFEAA7;stroke-width:1;"/><text fill="#856404" font-family="Verdana" font-size="13" lengthAdjust="spacing" textLength="345.0396" x="666" y="1085.7935">For any given snoop request, the target must always</text><text fill="#856404" font-family="Verdana" font-size="13" lengthAdjust="spacing" textLength="354.2183" x="666" y="1100.9263">retry. The target may or may not retry the transaction</text><text fill="#856404" font-family="Verdana" font-size="13" lengthAdjust="spacing" textLength="73.0679" x="666" y="1116.0591">right away.</text><text fill="#856404" font-family="Verdana" font-size="13" lengthAdjust="spacing" textLength="4.1323" x="666" y="1131.1919">&#160;</text><text fill="#856404" font-family="Verdana" font-size="13" lengthAdjust="spacing" textLength="348.6577" x="666" y="1146.3247">E.g. The target still attempts to send a snoop request</text><text fill="#856404" font-family="Verdana" font-size="13" lengthAdjust="spacing" textLength="354.415" x="666" y="1161.4575">w/o enough credit (can be used mainly for debugging)</text><path d="M15,1195.5234 L219.1294,1195.5234 L219.1294,1202.6563 L209.1294,1212.6563 L15,1212.6563 L15,1195.5234" fill="#F1F3F4" style="stroke:#DADCE0;stroke-width:1;"/><rect fill="none" height="203" style="stroke:#DADCE0;stroke-width:1;" width="1046.3496" x="15" y="1195.5234"/><text fill="#000000" font-family="Verdana" font-size="13" font-weight="bold" lengthAdjust="spacing" textLength="159.1294" x="30" y="1208.5903">CHI CRSP Transaction</text><path d="M25,1219.6563 L89.4429,1219.6563 L89.4429,1226.7891 L79.4429,1236.7891 L25,1236.7891 L25,1219.6563" fill="#F1F3F4" style="stroke:#DADCE0;stroke-width:1;"/><rect fill="none" height="171.8672" style="stroke:#DADCE0;stroke-width:1;" width="1026.3496" x="25" y="1219.6563"/><text fill="#000000" font-family="Verdana" font-size="13" font-weight="bold" lengthAdjust="spacing" textLength="19.4429" x="40" y="1232.7231">alt</text><text fill="#000000" font-family="Verdana" font-size="11" font-weight="bold" lengthAdjust="spacing" textLength="67.5361" x="104.4429" y="1231.8667">[Accepted]</text><g class="message" data-participant-1="T" data-participant-2="I"><polygon fill="#6C757D" points="95.792,1253.9219,85.792,1257.9219,95.792,1261.9219,91.792,1257.9219" style="stroke:#6C757D;stroke-width:1;"/><line style="stroke:#6C757D;stroke-width:1;" x1="89.792" x2="654.9346" y1="1257.9219" y2="1257.9219"/><text fill="#000000" font-family="Verdana" font-size="13" font-weight="bold" lengthAdjust="spacing" textLength="122.1289" x="101.792" y="1252.856">nb_transport_bw</text><text fill="#000000" font-family="Verdana" font-size="13" lengthAdjust="spacing" textLength="341.0596" x="223.9209" y="1252.856">(Phase(transport_type=TRANSACTION)) : ACCEPTED</text></g><line style="stroke:#DADCE0;stroke-width:1;stroke-dasharray:2,2;" x1="25" x2="1051.3496" y1="1266.9219" y2="1266.9219"/><text fill="#000000" font-family="Verdana" font-size="11" font-weight="bold" lengthAdjust="spacing" textLength="43.8389" x="30" y="1277.1323">[Retry]</text><g class="message" data-participant-1="T" data-participant-2="I"><polygon fill="#6C757D" points="95.792,1338.6914,85.792,1342.6914,95.792,1346.6914,91.792,1342.6914" style="stroke:#6C757D;stroke-width:1;"/><line style="stroke:#6C757D;stroke-width:1;" x1="89.792" x2="654.9346" y1="1342.6914" y2="1342.6914"/><text fill="#000000" font-family="Verdana" font-size="13" font-weight="bold" lengthAdjust="spacing" textLength="122.1289" x="101.792" y="1337.6255">nb_transport_bw</text><text fill="#000000" font-family="Verdana" font-size="13" lengthAdjust="spacing" textLength="313.9551" x="223.9209" y="1337.6255">(Phase(transport_type=TRANSACTION)) : RETRY</text></g><path d="M660,1285.7266 L660,1385.7266 L1035,1385.7266 L1035,1295.7266 L1025,1285.7266 L660,1285.7266" fill="#FFF3CD" style="stroke:#FFEAA7;stroke-width:1;"/><path d="M1025,1285.7266 L1025,1295.7266 L1035,1295.7266 L1025,1285.7266" fill="#FFF3CD" style="stroke:#FFEAA7;stroke-width:1;"/><text fill="#856404" font-family="Verdana" font-size="13" lengthAdjust="spacing" textLength="351.1079" x="666" y="1302.7935">For any given response, the target must always retry.</text><text fill="#856404" font-family="Verdana" font-size="13" lengthAdjust="spacing" textLength="314.4756" x="666" y="1317.9263">The target may or may not retry the transaction</text><text fill="#856404" font-family="Verdana" font-size="13" lengthAdjust="spacing" textLength="73.0679" x="666" y="1333.0591">right away.</text><text fill="#856404" font-family="Verdana" font-size="13" lengthAdjust="spacing" textLength="4.1323" x="666" y="1348.1919">&#160;</text><text fill="#856404" font-family="Verdana" font-size="13" lengthAdjust="spacing" textLength="305.354" x="666" y="1363.3247">E.g. The target still attempts to send a request</text><text fill="#856404" font-family="Verdana" font-size="13" lengthAdjust="spacing" textLength="354.415" x="666" y="1378.4575">w/o enough credit (can be used mainly for debugging)</text><path d="M15,1412.5234 L220.418,1412.5234 L220.418,1419.6563 L210.418,1429.6563 L15,1429.6563 L15,1412.5234" fill="#F1F3F4" style="stroke:#DADCE0;stroke-width:1;"/><rect fill="none" height="203" style="stroke:#DADCE0;stroke-width:1;" width="1046.3496" x="15" y="1412.5234"/><text fill="#000000" font-family="Verdana" font-size="13" font-weight="bold" lengthAdjust="spacing" textLength="160.418" x="30" y="1425.5903">CHI RDAT Transaction</text><path d="M25,1436.6563 L89.4429,1436.6563 L89.4429,1443.7891 L79.4429,1453.7891 L25,1453.7891 L25,1436.6563" fill="#F1F3F4" style="stroke:#DADCE0;stroke-width:1;"/><rect fill="none" height="171.8672" style="stroke:#DADCE0;stroke-width:1;" width="1026.3496" x="25" y="1436.6563"/><text fill="#000000" font-family="Verdana" font-size="13" font-weight="bold" lengthAdjust="spacing" textLength="19.4429" x="40" y="1449.7231">alt</text><text fill="#000000" font-family="Verdana" font-size="11" font-weight="bold" lengthAdjust="spacing" textLength="67.5361" x="104.4429" y="1448.8667">[Accepted]</text><g class="message" data-participant-1="T" data-participant-2="I"><polygon fill="#6C757D" points="95.792,1470.9219,85.792,1474.9219,95.792,1478.9219,91.792,1474.9219" style="stroke:#6C757D;stroke-width:1;"/><line style="stroke:#6C757D;stroke-width:1;" x1="89.792" x2="654.9346" y1="1474.9219" y2="1474.9219"/><text fill="#000000" font-family="Verdana" font-size="13" font-weight="bold" lengthAdjust="spacing" textLength="122.1289" x="101.792" y="1469.856">nb_transport_bw</text><text fill="#000000" font-family="Verdana" font-size="13" lengthAdjust="spacing" textLength="341.0596" x="223.9209" y="1469.856">(Phase(transport_type=TRANSACTION)) : ACCEPTED</text></g><line style="stroke:#DADCE0;stroke-width:1;stroke-dasharray:2,2;" x1="25" x2="1051.3496" y1="1483.9219" y2="1483.9219"/><text fill="#000000" font-family="Verdana" font-size="11" font-weight="bold" lengthAdjust="spacing" textLength="43.8389" x="30" y="1494.1323">[Retry]</text><g class="message" data-participant-1="T" data-participant-2="I"><polygon fill="#6C757D" points="95.792,1555.6914,85.792,1559.6914,95.792,1563.6914,91.792,1559.6914" style="stroke:#6C757D;stroke-width:1;"/><line style="stroke:#6C757D;stroke-width:1;" x1="89.792" x2="654.9346" y1="1559.6914" y2="1559.6914"/><text fill="#000000" font-family="Verdana" font-size="13" font-weight="bold" lengthAdjust="spacing" textLength="122.1289" x="101.792" y="1554.6255">nb_transport_bw</text><text fill="#000000" font-family="Verdana" font-size="13" lengthAdjust="spacing" textLength="313.9551" x="223.9209" y="1554.6255">(Phase(transport_type=TRANSACTION)) : RETRY</text></g><path d="M660,1502.7266 L660,1602.7266 L1035,1602.7266 L1035,1512.7266 L1025,1502.7266 L660,1502.7266" fill="#FFF3CD" style="stroke:#FFEAA7;stroke-width:1;"/><path d="M1025,1502.7266 L1025,1512.7266 L1035,1512.7266 L1025,1502.7266" fill="#FFF3CD" style="stroke:#FFEAA7;stroke-width:1;"/><text fill="#856404" font-family="Verdana" font-size="13" lengthAdjust="spacing" textLength="321.0581" x="666" y="1519.7935">For any given data, the target must always retry.</text><text fill="#856404" font-family="Verdana" font-size="13" lengthAdjust="spacing" textLength="314.4756" x="666" y="1534.9263">The target may or may not retry the transaction</text><text fill="#856404" font-family="Verdana" font-size="13" lengthAdjust="spacing" textLength="73.0679" x="666" y="1550.0591">right away.</text><text fill="#856404" font-family="Verdana" font-size="13" lengthAdjust="spacing" textLength="4.1323" x="666" y="1565.1919">&#160;</text><text fill="#856404" font-family="Verdana" font-size="13" lengthAdjust="spacing" textLength="305.354" x="666" y="1580.3247">E.g. The target still attempts to send a request</text><text fill="#856404" font-family="Verdana" font-size="13" lengthAdjust="spacing" textLength="354.415" x="666" y="1595.4575">w/o enough credit (can be used mainly for debugging)</text><!--SRC=[xLPjRzem4FwUNt5hlm0gh1jGsgbKOYdJ8cqT2v6cIPCgavo3rM1djXb3K__x71CWl1GDhMgrTX4YXdk_U-xEB_GGHmXfGXXtr0tZAP5a1BySCC-0X3Un56CUkI8H4YP3fj5I39Tc8Ki9rpdlDlv3UahFA5dIXOnGvhG8yJMUB6XKS9rJ6cVDusRBKcxjjyBlO-GX5amHASKavpy9MyrMj20bZE87nl7jXZVssUJRuLKcdsugUaNhjB76jAA5H24U5oBWGkFEH55Q3wFjYQ8K2MbjIzHfywHntCZDt3fEiIe7Flye8ao-yPB7cMP42ra-0AB0WqEiqzSqMkVtwCzEH5ADqWW5HCQePnA1SQAEJTfqd7ORtWav8JA27j53S2L6J4ExxNXmNgqQrZTGgV31jPQ4grH8VJsOL2gbtf0eB2t_rDCKswxVlVI28mYj4jK-pmyNvR9Hqt7TRY_eNZesUPB5Gsr23OPCWTL3Giq4XmbB4WXDKWo2Sqt0E1LoH2pTd02PWRaqqkvxxzhlVZwQ7VezCCJiUDa9EaOA35icOEDBJNmEyiWMRpFoOEc3okAtACYKWJ5GfDhwa4H39mpHP7TPPW-g5zioHk_CME1thleTD_0-NQtcA5E7YKBmKSlfFLhmku7_TQ5lfHJpnwG529z2p7uW1vargz97DfTi3ZqOaIdaBwEa82qpXorpiQhM1f39JCf8036V9Aav1T5kBQuPG1JDA9t1WMYDerGRe0WpF4m9oTojWlJafG3aOXmFvx0fXOJ3066iC3AUCfvCBNmY78pZcF6ul11Vu2B_aG75AM3WYq7KCmP1H3JPGC1OPIKq9LMpejSAui4Ei6o7I1522x3yA_3ePxFdESy8euqh_0-HTOYOBPDTDxOlsEg-XNgS1Tk_wkrSi8DvW9iRTZNskrUiCV6dxNE-vwLa__RvMmjxju_YGgIhYrRRwrgnWTPNx0pdSxxxxPvSwvsji-BmGyrOTuyP-mH1iZfZD_6nVS0-3ZuU61d-7fUp9uYCvUNisQFYDm00]--></g></svg>