<svg xmlns="http://www.w3.org/2000/svg" xmlns:xlink="http://www.w3.org/1999/xlink" contentStyleType="text/css" data-diagram-type="SEQUENCE" height="1684px" preserveAspectRatio="none" style="width:827px;height:1684px;background:#FFFFFF;" version="1.1" viewBox="0 0 827 1684" width="827px" zoomAndPan="magnify"><defs/><g><rect fill="#FFFFFF" height="187.8672" style="stroke:#DADCE0;stroke-width:1;" width="788.3301" x="15" y="206.125"/><rect fill="#FFFFFF" height="156.7344" style="stroke:#DADCE0;stroke-width:1;" width="768.3301" x="25" y="230.2578"/><rect fill="#FFFFFF" height="110.4688" style="stroke:none;stroke-width:1;" width="768.3301" x="25" y="276.5234"/><rect fill="#FFFFFF" height="203" style="stroke:#DADCE0;stroke-width:1;" width="788.3301" x="15" y="407.9922"/><rect fill="#FFFFFF" height="171.8672" style="stroke:#DADCE0;stroke-width:1;" width="768.3301" x="25" y="432.125"/><rect fill="#FFFFFF" height="125.6016" style="stroke:none;stroke-width:1;" width="768.3301" x="25" y="478.3906"/><rect fill="#FFFFFF" height="203" style="stroke:#DADCE0;stroke-width:1;" width="795.8013" x="15" y="624.9922"/><rect fill="#FFFFFF" height="171.8672" style="stroke:#DADCE0;stroke-width:1;" width="775.8013" x="25" y="649.125"/><rect fill="#FFFFFF" height="125.6016" style="stroke:none;stroke-width:1;" width="775.8013" x="25" y="695.3906"/><rect fill="#FFFFFF" height="203" style="stroke:#DADCE0;stroke-width:1;" width="788.3301" x="15" y="978.5234"/><rect fill="#FFFFFF" height="171.8672" style="stroke:#DADCE0;stroke-width:1;" width="768.3301" x="25" y="1002.6563"/><rect fill="#FFFFFF" height="125.6016" style="stroke:none;stroke-width:1;" width="768.3301" x="25" y="1048.9219"/><rect fill="#FFFFFF" height="203" style="stroke:#DADCE0;stroke-width:1;" width="788.3301" x="15" y="1195.5234"/><rect fill="#FFFFFF" height="171.8672" style="stroke:#DADCE0;stroke-width:1;" width="768.3301" x="25" y="1219.6563"/><rect fill="#FFFFFF" height="125.6016" style="stroke:none;stroke-width:1;" width="768.3301" x="25" y="1265.9219"/><rect fill="#FFFFFF" height="203" style="stroke:#DADCE0;stroke-width:1;" width="788.3301" x="15" y="1412.5234"/><rect fill="#FFFFFF" height="171.8672" style="stroke:#DADCE0;stroke-width:1;" width="768.3301" x="25" y="1436.6563"/><rect fill="#FFFFFF" height="125.6016" style="stroke:none;stroke-width:1;" width="768.3301" x="25" y="1482.9219"/><g><title>RnModel</title><rect fill="#000000" fill-opacity="0.00000" height="1579.9297" width="8" x="80.792" y="52.5938"/><line style="stroke:#DEE2E6;stroke-width:1;stroke-dasharray:5,5;" x1="84" x2="84" y1="52.5938" y2="1632.5234"/></g><g><title>RnIfxAdapter</title><rect fill="#000000" fill-opacity="0.00000" height="1579.9297" width="8" x="393.915" y="52.5938"/><line style="stroke:#DEE2E6;stroke-width:1;stroke-dasharray:5,5;" x1="397.0493" x2="397.0493" y1="52.5938" y2="1632.5234"/></g><g class="participant participant-head" data-participant="I"><rect fill="#E3F2FD" height="46.5938" rx="2.5" ry="2.5" style="stroke:#DEE2E6;stroke-width:1;" width="79.584" x="45" y="5"/><text fill="#495057" font-family="Verdana" font-size="14" lengthAdjust="spacing" textLength="60.6348" x="54.4746" y="24.9951">RnModel</text><text fill="#495057" font-family="Verdana" font-size="14" lengthAdjust="spacing" textLength="65.584" x="52" y="41.292">(Initiator)</text></g><g class="participant participant-tail" data-participant="I"><rect fill="#E3F2FD" height="46.5938" rx="2.5" ry="2.5" style="stroke:#DEE2E6;stroke-width:1;" width="79.584" x="45" y="1631.5234"/><text fill="#495057" font-family="Verdana" font-size="14" lengthAdjust="spacing" textLength="60.6348" x="54.4746" y="1651.5186">RnModel</text><text fill="#495057" font-family="Verdana" font-size="14" lengthAdjust="spacing" textLength="65.584" x="52" y="1667.8154">(Initiator)</text></g><g class="participant participant-head" data-participant="T"><rect fill="#F3E5F5" height="46.5938" rx="2.5" ry="2.5" style="stroke:#DEE2E6;stroke-width:1;" width="105.7314" x="345.0493" y="5"/><text fill="#495057" font-family="Verdana" font-size="14" lengthAdjust="spacing" textLength="91.7314" x="352.0493" y="24.9951">RnIfxAdapter</text><text fill="#495057" font-family="Verdana" font-size="14" lengthAdjust="spacing" textLength="56.7998" x="369.5151" y="41.292">(Target)</text></g><g class="participant participant-tail" data-participant="T"><rect fill="#F3E5F5" height="46.5938" rx="2.5" ry="2.5" style="stroke:#DEE2E6;stroke-width:1;" width="105.7314" x="345.0493" y="1631.5234"/><text fill="#495057" font-family="Verdana" font-size="14" lengthAdjust="spacing" textLength="91.7314" x="352.0493" y="1651.5186">RnIfxAdapter</text><text fill="#495057" font-family="Verdana" font-size="14" lengthAdjust="spacing" textLength="56.7998" x="369.5151" y="1667.8154">(Target)</text></g><rect fill="#FFFFFF" height="3" style="stroke:#FFFFFF;stroke-width:1;" width="815.8013" x="5" y="83.1602"/><line style="stroke:#000000;stroke-width:0.5;" x1="5" x2="820.8013" y1="83.1602" y2="83.1602"/><line style="stroke:#000000;stroke-width:0.5;" x1="5" x2="820.8013" y1="86.1602" y2="86.1602"/><rect fill="#FFFFFF" height="23.1328" style="stroke:#000000;stroke-width:1;" width="166.8135" x="329.4939" y="72.5938"/><text fill="#000000" font-family="Verdana" font-size="13" font-weight="bold" lengthAdjust="spacing" textLength="148.2876" x="335.4939" y="88.6606">Forward Path Credit</text><g class="message" data-participant-1="T" data-participant-2="I"><polygon fill="#6C757D" points="95.792,133.4258,85.792,137.4258,95.792,141.4258,91.792,137.4258" style="stroke:#6C757D;stroke-width:1;"/><line style="stroke:#6C757D;stroke-width:1;stroke-dasharray:2,2;" x1="89.792" x2="396.915" y1="137.4258" y2="137.4258"/><text fill="#000000" font-family="Verdana" font-size="13" font-weight="bold" lengthAdjust="spacing" textLength="122.1289" x="101.792" y="132.3599">nb_transport_bw</text><text fill="#000000" font-family="Verdana" font-size="13" lengthAdjust="spacing" textLength="166.9941" x="223.9209" y="132.3599">(FW_CREDIT) : ACCEPTED</text></g><path d="M402,110.7266 L402,150.7266 L790,150.7266 L790,120.7266 L780,110.7266 L402,110.7266" fill="#FFF3CD" style="stroke:#FFEAA7;stroke-width:1;"/><path d="M780,110.7266 L780,120.7266 L790,120.7266 L780,110.7266" fill="#FFF3CD" style="stroke:#FFEAA7;stroke-width:1;"/><text fill="#856404" font-family="Verdana" font-size="13" lengthAdjust="spacing" textLength="367.5229" x="408" y="127.7935">This transaction will contain credit information for either</text><text fill="#856404" font-family="Verdana" font-size="13" lengthAdjust="spacing" textLength="335.0674" x="408" y="142.9263">CHI_REQ, CHI_RSP or CHI_DATA in the forward path</text><rect fill="#FFFFFF" height="3" style="stroke:#FFFFFF;stroke-width:1;" width="815.8013" x="5" y="176.5586"/><line style="stroke:#000000;stroke-width:0.5;" x1="5" x2="820.8013" y1="176.5586" y2="176.5586"/><line style="stroke:#000000;stroke-width:0.5;" x1="5" x2="820.8013" y1="179.5586" y2="179.5586"/><rect fill="#FFFFFF" height="23.1328" style="stroke:#000000;stroke-width:1;" width="216.1855" x="304.8079" y="165.9922"/><text fill="#000000" font-family="Verdana" font-size="13" font-weight="bold" lengthAdjust="spacing" textLength="197.6597" x="310.8079" y="182.0591">Forward Path Transactions</text><path d="M15,206.125 L265.1118,206.125 L265.1118,213.2578 L255.1118,223.2578 L15,223.2578 L15,206.125" fill="#F1F3F4" style="stroke:#DADCE0;stroke-width:1;"/><rect fill="none" height="187.8672" style="stroke:#DADCE0;stroke-width:1;" width="788.3301" x="15" y="206.125"/><text fill="#000000" font-family="Verdana" font-size="13" font-weight="bold" lengthAdjust="spacing" textLength="205.1118" x="30" y="219.1919">CHI_REQ + tlm_txn_id Phase</text><path d="M25,230.2578 L89.4429,230.2578 L89.4429,237.3906 L79.4429,247.3906 L25,247.3906 L25,230.2578" fill="#F1F3F4" style="stroke:#DADCE0;stroke-width:1;"/><rect fill="none" height="156.7344" style="stroke:#DADCE0;stroke-width:1;" width="768.3301" x="25" y="230.2578"/><text fill="#000000" font-family="Verdana" font-size="13" font-weight="bold" lengthAdjust="spacing" textLength="19.4429" x="40" y="243.3247">alt</text><text fill="#000000" font-family="Verdana" font-size="11" font-weight="bold" lengthAdjust="spacing" textLength="67.5361" x="104.4429" y="242.4683">[Accepted]</text><g class="message" data-participant-1="I" data-participant-2="T"><polygon fill="#6C757D" points="385.915,264.5234,395.915,268.5234,385.915,272.5234,389.915,268.5234" style="stroke:#6C757D;stroke-width:1;"/><line style="stroke:#6C757D;stroke-width:1;" x1="84.792" x2="391.915" y1="268.5234" y2="268.5234"/><text fill="#000000" font-family="Verdana" font-size="13" font-weight="bold" lengthAdjust="spacing" textLength="118.479" x="91.792" y="263.4575">nb_transport_fw</text><text fill="#000000" font-family="Verdana" font-size="13" lengthAdjust="spacing" textLength="148.7192" x="210.271" y="263.4575">(CHI_REQ) : ACCEPTED</text></g><line style="stroke:#DADCE0;stroke-width:1;stroke-dasharray:2,2;" x1="25" x2="793.3301" y1="277.5234" y2="277.5234"/><text fill="#000000" font-family="Verdana" font-size="11" font-weight="bold" lengthAdjust="spacing" textLength="43.8389" x="30" y="287.7339">[Retry]</text><g class="message" data-participant-1="I" data-participant-2="T"><polygon fill="#6C757D" points="385.915,341.7266,395.915,345.7266,385.915,349.7266,389.915,345.7266" style="stroke:#6C757D;stroke-width:1;"/><line style="stroke:#6C757D;stroke-width:1;" x1="84.792" x2="391.915" y1="345.7266" y2="345.7266"/><text fill="#000000" font-family="Verdana" font-size="13" font-weight="bold" lengthAdjust="spacing" textLength="118.479" x="91.792" y="340.6606">nb_transport_fw</text><text fill="#000000" font-family="Verdana" font-size="13" lengthAdjust="spacing" textLength="121.6147" x="210.271" y="340.6606">(CHI_REQ) : RETRY</text></g><path d="M402,296.3281 L402,381.3281 L777,381.3281 L777,306.3281 L767,296.3281 L402,296.3281" fill="#FFF3CD" style="stroke:#FFEAA7;stroke-width:1;"/><path d="M767,296.3281 L767,306.3281 L777,306.3281 L767,296.3281" fill="#FFF3CD" style="stroke:#FFEAA7;stroke-width:1;"/><text fill="#856404" font-family="Verdana" font-size="13" lengthAdjust="spacing" textLength="334.5977" x="408" y="313.395">For any given request, the initiator may or may not</text><text fill="#856404" font-family="Verdana" font-size="13" lengthAdjust="spacing" textLength="291.0845" x="408" y="328.5278">retry the transaction right away or not at all.</text><text fill="#856404" font-family="Verdana" font-size="13" lengthAdjust="spacing" textLength="4.1323" x="408" y="343.6606">&#160;</text><text fill="#856404" font-family="Verdana" font-size="13" lengthAdjust="spacing" textLength="316.1323" x="408" y="358.7935">E.g. The initiator still attempts to send a request</text><text fill="#856404" font-family="Verdana" font-size="13" lengthAdjust="spacing" textLength="354.415" x="408" y="373.9263">w/o enough credit (can be used mainly for debugging)</text><path d="M15,407.9922 L264.8896,407.9922 L264.8896,415.125 L254.8896,425.125 L15,425.125 L15,407.9922" fill="#F1F3F4" style="stroke:#DADCE0;stroke-width:1;"/><rect fill="none" height="203" style="stroke:#DADCE0;stroke-width:1;" width="788.3301" x="15" y="407.9922"/><text fill="#000000" font-family="Verdana" font-size="13" font-weight="bold" lengthAdjust="spacing" textLength="204.8896" x="30" y="421.0591">CHI_DAT + tlm_txn_id Phase</text><path d="M25,432.125 L89.4429,432.125 L89.4429,439.2578 L79.4429,449.2578 L25,449.2578 L25,432.125" fill="#F1F3F4" style="stroke:#DADCE0;stroke-width:1;"/><rect fill="none" height="171.8672" style="stroke:#DADCE0;stroke-width:1;" width="768.3301" x="25" y="432.125"/><text fill="#000000" font-family="Verdana" font-size="13" font-weight="bold" lengthAdjust="spacing" textLength="19.4429" x="40" y="445.1919">alt</text><text fill="#000000" font-family="Verdana" font-size="11" font-weight="bold" lengthAdjust="spacing" textLength="67.5361" x="104.4429" y="444.3354">[Accepted]</text><g class="message" data-participant-1="I" data-participant-2="T"><polygon fill="#6C757D" points="385.915,466.3906,395.915,470.3906,385.915,474.3906,389.915,470.3906" style="stroke:#6C757D;stroke-width:1;"/><line style="stroke:#6C757D;stroke-width:1;" x1="84.792" x2="391.915" y1="470.3906" y2="470.3906"/><text fill="#000000" font-family="Verdana" font-size="13" font-weight="bold" lengthAdjust="spacing" textLength="118.479" x="91.792" y="465.3247">nb_transport_fw</text><text fill="#000000" font-family="Verdana" font-size="13" lengthAdjust="spacing" textLength="148.0845" x="210.271" y="465.3247">(CHI_DAT) : ACCEPTED</text></g><line style="stroke:#DADCE0;stroke-width:1;stroke-dasharray:2,2;" x1="25" x2="793.3301" y1="479.3906" y2="479.3906"/><text fill="#000000" font-family="Verdana" font-size="11" font-weight="bold" lengthAdjust="spacing" textLength="43.8389" x="30" y="489.6011">[Retry]</text><g class="message" data-participant-1="I" data-participant-2="T"><polygon fill="#6C757D" points="385.915,551.1602,395.915,555.1602,385.915,559.1602,389.915,555.1602" style="stroke:#6C757D;stroke-width:1;"/><line style="stroke:#6C757D;stroke-width:1;" x1="84.792" x2="391.915" y1="555.1602" y2="555.1602"/><text fill="#000000" font-family="Verdana" font-size="13" font-weight="bold" lengthAdjust="spacing" textLength="118.479" x="91.792" y="550.0942">nb_transport_fw</text><text fill="#000000" font-family="Verdana" font-size="13" lengthAdjust="spacing" textLength="120.98" x="210.271" y="550.0942">(CHI_DAT) : RETRY</text></g><path d="M402,498.1953 L402,598.1953 L777,598.1953 L777,508.1953 L767,498.1953 L402,498.1953" fill="#FFF3CD" style="stroke:#FFEAA7;stroke-width:1;"/><path d="M767,498.1953 L767,508.1953 L777,508.1953 L767,498.1953" fill="#FFF3CD" style="stroke:#FFEAA7;stroke-width:1;"/><text fill="#856404" font-family="Verdana" font-size="13" lengthAdjust="spacing" textLength="331.8364" x="408" y="515.2622">For any given data, the initiator must always retry.</text><text fill="#856404" font-family="Verdana" font-size="13" lengthAdjust="spacing" textLength="325.2539" x="408" y="530.395">The initiator may or may not retry the transaction</text><text fill="#856404" font-family="Verdana" font-size="13" lengthAdjust="spacing" textLength="73.0679" x="408" y="545.5278">right away.</text><text fill="#856404" font-family="Verdana" font-size="13" lengthAdjust="spacing" textLength="4.1323" x="408" y="560.6606">&#160;</text><text fill="#856404" font-family="Verdana" font-size="13" lengthAdjust="spacing" textLength="316.1323" x="408" y="575.7935">E.g. The initiator still attempts to send a request</text><text fill="#856404" font-family="Verdana" font-size="13" lengthAdjust="spacing" textLength="354.415" x="408" y="590.9263">w/o enough credit (can be used mainly for debugging)</text><path d="M15,624.9922 L264.0708,624.9922 L264.0708,632.125 L254.0708,642.125 L15,642.125 L15,624.9922" fill="#F1F3F4" style="stroke:#DADCE0;stroke-width:1;"/><rect fill="none" height="203" style="stroke:#DADCE0;stroke-width:1;" width="795.8013" x="15" y="624.9922"/><text fill="#000000" font-family="Verdana" font-size="13" font-weight="bold" lengthAdjust="spacing" textLength="204.0708" x="30" y="638.0591">CHI_RSP + tlm_txn_id Phase</text><path d="M25,649.125 L89.4429,649.125 L89.4429,656.2578 L79.4429,666.2578 L25,666.2578 L25,649.125" fill="#F1F3F4" style="stroke:#DADCE0;stroke-width:1;"/><rect fill="none" height="171.8672" style="stroke:#DADCE0;stroke-width:1;" width="775.8013" x="25" y="649.125"/><text fill="#000000" font-family="Verdana" font-size="13" font-weight="bold" lengthAdjust="spacing" textLength="19.4429" x="40" y="662.1919">alt</text><text fill="#000000" font-family="Verdana" font-size="11" font-weight="bold" lengthAdjust="spacing" textLength="67.5361" x="104.4429" y="661.3354">[Accepted]</text><g class="message" data-participant-1="I" data-participant-2="T"><polygon fill="#6C757D" points="385.915,683.3906,395.915,687.3906,385.915,691.3906,389.915,687.3906" style="stroke:#6C757D;stroke-width:1;"/><line style="stroke:#6C757D;stroke-width:1;" x1="84.792" x2="391.915" y1="687.3906" y2="687.3906"/><text fill="#000000" font-family="Verdana" font-size="13" font-weight="bold" lengthAdjust="spacing" textLength="118.479" x="91.792" y="682.3247">nb_transport_fw</text><text fill="#000000" font-family="Verdana" font-size="13" lengthAdjust="spacing" textLength="146.3643" x="210.271" y="682.3247">(CHI_RSP) : ACCEPTED</text></g><line style="stroke:#DADCE0;stroke-width:1;stroke-dasharray:2,2;" x1="25" x2="800.8013" y1="696.3906" y2="696.3906"/><text fill="#000000" font-family="Verdana" font-size="11" font-weight="bold" lengthAdjust="spacing" textLength="43.8389" x="30" y="706.6011">[Retry]</text><g class="message" data-participant-1="I" data-participant-2="T"><polygon fill="#6C757D" points="385.915,768.1602,395.915,772.1602,385.915,776.1602,389.915,772.1602" style="stroke:#6C757D;stroke-width:1;"/><line style="stroke:#6C757D;stroke-width:1;" x1="84.792" x2="391.915" y1="772.1602" y2="772.1602"/><text fill="#000000" font-family="Verdana" font-size="13" font-weight="bold" lengthAdjust="spacing" textLength="118.479" x="91.792" y="767.0942">nb_transport_fw</text><text fill="#000000" font-family="Verdana" font-size="13" lengthAdjust="spacing" textLength="119.2598" x="210.271" y="767.0942">(CHI_RSP) : RETRY</text></g><path d="M402,715.1953 L402,815.1953 L784,815.1953 L784,725.1953 L774,715.1953 L402,715.1953" fill="#FFF3CD" style="stroke:#FFEAA7;stroke-width:1;"/><path d="M774,715.1953 L774,725.1953 L784,725.1953 L774,715.1953" fill="#FFF3CD" style="stroke:#FFEAA7;stroke-width:1;"/><text fill="#856404" font-family="Verdana" font-size="13" lengthAdjust="spacing" textLength="361.8862" x="408" y="732.2622">For any given response, the initiator must always retry.</text><text fill="#856404" font-family="Verdana" font-size="13" lengthAdjust="spacing" textLength="325.2539" x="408" y="747.395">The initiator may or may not retry the transaction</text><text fill="#856404" font-family="Verdana" font-size="13" lengthAdjust="spacing" textLength="73.0679" x="408" y="762.5278">right away.</text><text fill="#856404" font-family="Verdana" font-size="13" lengthAdjust="spacing" textLength="4.1323" x="408" y="777.6606">&#160;</text><text fill="#856404" font-family="Verdana" font-size="13" lengthAdjust="spacing" textLength="316.1323" x="408" y="792.7935">E.g. The initiator still attempts to send a request</text><text fill="#856404" font-family="Verdana" font-size="13" lengthAdjust="spacing" textLength="354.415" x="408" y="807.9263">w/o enough credit (can be used mainly for debugging)</text><rect fill="#FFFFFF" height="3" style="stroke:#FFFFFF;stroke-width:1;" width="815.8013" x="5" y="855.5586"/><line style="stroke:#000000;stroke-width:0.5;" x1="5" x2="820.8013" y1="855.5586" y2="855.5586"/><line style="stroke:#000000;stroke-width:0.5;" x1="5" x2="820.8013" y1="858.5586" y2="858.5586"/><rect fill="#FFFFFF" height="23.1328" style="stroke:#000000;stroke-width:1;" width="177.6235" x="324.0889" y="844.9922"/><text fill="#000000" font-family="Verdana" font-size="13" font-weight="bold" lengthAdjust="spacing" textLength="159.0977" x="330.0889" y="861.0591">Backward Path Credit</text><g class="message" data-participant-1="I" data-participant-2="T"><polygon fill="#6C757D" points="385.915,905.8242,395.915,909.8242,385.915,913.8242,389.915,909.8242" style="stroke:#6C757D;stroke-width:1;"/><line style="stroke:#6C757D;stroke-width:1;stroke-dasharray:2,2;" x1="84.792" x2="391.915" y1="909.8242" y2="909.8242"/><text fill="#000000" font-family="Verdana" font-size="13" font-weight="bold" lengthAdjust="spacing" textLength="118.479" x="91.792" y="904.7583">nb_transport_fw</text><text fill="#000000" font-family="Verdana" font-size="13" lengthAdjust="spacing" textLength="166.9941" x="210.271" y="904.7583">(FW_CREDIT) : ACCEPTED</text></g><path d="M402,883.125 L402,923.125 L790,923.125 L790,893.125 L780,883.125 L402,883.125" fill="#FFF3CD" style="stroke:#FFEAA7;stroke-width:1;"/><path d="M780,883.125 L780,893.125 L790,893.125 L780,883.125" fill="#FFF3CD" style="stroke:#FFEAA7;stroke-width:1;"/><text fill="#856404" font-family="Verdana" font-size="13" lengthAdjust="spacing" textLength="367.5229" x="408" y="900.1919">This transaction will contain credit information for either</text><text fill="#856404" font-family="Verdana" font-size="13" lengthAdjust="spacing" textLength="346.4233" x="408" y="915.3247">CHI_SNP, CHI_RSP or CHI_DATA in the backward path</text><rect fill="#FFFFFF" height="3" style="stroke:#FFFFFF;stroke-width:1;" width="815.8013" x="5" y="948.957"/><line style="stroke:#000000;stroke-width:0.5;" x1="5" x2="820.8013" y1="948.957" y2="948.957"/><line style="stroke:#000000;stroke-width:0.5;" x1="5" x2="820.8013" y1="951.957" y2="951.957"/><rect fill="#FFFFFF" height="23.1328" style="stroke:#000000;stroke-width:1;" width="226.9956" x="299.4028" y="938.3906"/><text fill="#000000" font-family="Verdana" font-size="13" font-weight="bold" lengthAdjust="spacing" textLength="208.4697" x="305.4028" y="954.4575">Backward Path Transactions</text><path d="M15,978.5234 L264.9404,978.5234 L264.9404,985.6563 L254.9404,995.6563 L15,995.6563 L15,978.5234" fill="#F1F3F4" style="stroke:#DADCE0;stroke-width:1;"/><rect fill="none" height="203" style="stroke:#DADCE0;stroke-width:1;" width="788.3301" x="15" y="978.5234"/><text fill="#000000" font-family="Verdana" font-size="13" font-weight="bold" lengthAdjust="spacing" textLength="204.9404" x="30" y="991.5903">CHI_SNP + tlm_txn_id Phase</text><path d="M25,1002.6563 L89.4429,1002.6563 L89.4429,1009.7891 L79.4429,1019.7891 L25,1019.7891 L25,1002.6563" fill="#F1F3F4" style="stroke:#DADCE0;stroke-width:1;"/><rect fill="none" height="171.8672" style="stroke:#DADCE0;stroke-width:1;" width="768.3301" x="25" y="1002.6563"/><text fill="#000000" font-family="Verdana" font-size="13" font-weight="bold" lengthAdjust="spacing" textLength="19.4429" x="40" y="1015.7231">alt</text><text fill="#000000" font-family="Verdana" font-size="11" font-weight="bold" lengthAdjust="spacing" textLength="67.5361" x="104.4429" y="1014.8667">[Accepted]</text><g class="message" data-participant-1="T" data-participant-2="I"><polygon fill="#6C757D" points="95.792,1036.9219,85.792,1040.9219,95.792,1044.9219,91.792,1040.9219" style="stroke:#6C757D;stroke-width:1;"/><line style="stroke:#6C757D;stroke-width:1;" x1="89.792" x2="396.915" y1="1040.9219" y2="1040.9219"/><text fill="#000000" font-family="Verdana" font-size="13" font-weight="bold" lengthAdjust="spacing" textLength="122.1289" x="101.792" y="1035.856">nb_transport_bw</text><text fill="#000000" font-family="Verdana" font-size="13" lengthAdjust="spacing" textLength="147.0562" x="223.9209" y="1035.856">(CHI_SNP) : ACCEPTED</text></g><line style="stroke:#DADCE0;stroke-width:1;stroke-dasharray:2,2;" x1="25" x2="793.3301" y1="1049.9219" y2="1049.9219"/><text fill="#000000" font-family="Verdana" font-size="11" font-weight="bold" lengthAdjust="spacing" textLength="43.8389" x="30" y="1060.1323">[Retry]</text><g class="message" data-participant-1="T" data-participant-2="I"><polygon fill="#6C757D" points="95.792,1121.6914,85.792,1125.6914,95.792,1129.6914,91.792,1125.6914" style="stroke:#6C757D;stroke-width:1;"/><line style="stroke:#6C757D;stroke-width:1;" x1="89.792" x2="396.915" y1="1125.6914" y2="1125.6914"/><text fill="#000000" font-family="Verdana" font-size="13" font-weight="bold" lengthAdjust="spacing" textLength="122.1289" x="101.792" y="1120.6255">nb_transport_bw</text><text fill="#000000" font-family="Verdana" font-size="13" lengthAdjust="spacing" textLength="119.9517" x="223.9209" y="1120.6255">(CHI_SNP) : RETRY</text></g><path d="M402,1068.7266 L402,1168.7266 L777,1168.7266 L777,1078.7266 L767,1068.7266 L402,1068.7266" fill="#FFF3CD" style="stroke:#FFEAA7;stroke-width:1;"/><path d="M767,1068.7266 L767,1078.7266 L777,1078.7266 L767,1068.7266" fill="#FFF3CD" style="stroke:#FFEAA7;stroke-width:1;"/><text fill="#856404" font-family="Verdana" font-size="13" lengthAdjust="spacing" textLength="345.0396" x="408" y="1085.7935">For any given snoop request, the target must always</text><text fill="#856404" font-family="Verdana" font-size="13" lengthAdjust="spacing" textLength="354.2183" x="408" y="1100.9263">retry. The target may or may not retry the transaction</text><text fill="#856404" font-family="Verdana" font-size="13" lengthAdjust="spacing" textLength="73.0679" x="408" y="1116.0591">right away.</text><text fill="#856404" font-family="Verdana" font-size="13" lengthAdjust="spacing" textLength="4.1323" x="408" y="1131.1919">&#160;</text><text fill="#856404" font-family="Verdana" font-size="13" lengthAdjust="spacing" textLength="348.6577" x="408" y="1146.3247">E.g. The target still attempts to send a snoop request</text><text fill="#856404" font-family="Verdana" font-size="13" lengthAdjust="spacing" textLength="354.415" x="408" y="1161.4575">w/o enough credit (can be used mainly for debugging)</text><path d="M15,1195.5234 L264.0708,1195.5234 L264.0708,1202.6563 L254.0708,1212.6563 L15,1212.6563 L15,1195.5234" fill="#F1F3F4" style="stroke:#DADCE0;stroke-width:1;"/><rect fill="none" height="203" style="stroke:#DADCE0;stroke-width:1;" width="788.3301" x="15" y="1195.5234"/><text fill="#000000" font-family="Verdana" font-size="13" font-weight="bold" lengthAdjust="spacing" textLength="204.0708" x="30" y="1208.5903">CHI_RSP + tlm_txn_id Phase</text><path d="M25,1219.6563 L89.4429,1219.6563 L89.4429,1226.7891 L79.4429,1236.7891 L25,1236.7891 L25,1219.6563" fill="#F1F3F4" style="stroke:#DADCE0;stroke-width:1;"/><rect fill="none" height="171.8672" style="stroke:#DADCE0;stroke-width:1;" width="768.3301" x="25" y="1219.6563"/><text fill="#000000" font-family="Verdana" font-size="13" font-weight="bold" lengthAdjust="spacing" textLength="19.4429" x="40" y="1232.7231">alt</text><text fill="#000000" font-family="Verdana" font-size="11" font-weight="bold" lengthAdjust="spacing" textLength="67.5361" x="104.4429" y="1231.8667">[Accepted]</text><g class="message" data-participant-1="T" data-participant-2="I"><polygon fill="#6C757D" points="95.792,1253.9219,85.792,1257.9219,95.792,1261.9219,91.792,1257.9219" style="stroke:#6C757D;stroke-width:1;"/><line style="stroke:#6C757D;stroke-width:1;" x1="89.792" x2="396.915" y1="1257.9219" y2="1257.9219"/><text fill="#000000" font-family="Verdana" font-size="13" font-weight="bold" lengthAdjust="spacing" textLength="122.1289" x="101.792" y="1252.856">nb_transport_bw</text><text fill="#000000" font-family="Verdana" font-size="13" lengthAdjust="spacing" textLength="146.3643" x="223.9209" y="1252.856">(CHI_RSP) : ACCEPTED</text></g><line style="stroke:#DADCE0;stroke-width:1;stroke-dasharray:2,2;" x1="25" x2="793.3301" y1="1266.9219" y2="1266.9219"/><text fill="#000000" font-family="Verdana" font-size="11" font-weight="bold" lengthAdjust="spacing" textLength="43.8389" x="30" y="1277.1323">[Retry]</text><g class="message" data-participant-1="T" data-participant-2="I"><polygon fill="#6C757D" points="95.792,1338.6914,85.792,1342.6914,95.792,1346.6914,91.792,1342.6914" style="stroke:#6C757D;stroke-width:1;"/><line style="stroke:#6C757D;stroke-width:1;" x1="89.792" x2="396.915" y1="1342.6914" y2="1342.6914"/><text fill="#000000" font-family="Verdana" font-size="13" font-weight="bold" lengthAdjust="spacing" textLength="122.1289" x="101.792" y="1337.6255">nb_transport_bw</text><text fill="#000000" font-family="Verdana" font-size="13" lengthAdjust="spacing" textLength="119.2598" x="223.9209" y="1337.6255">(CHI_RSP) : RETRY</text></g><path d="M402,1285.7266 L402,1385.7266 L777,1385.7266 L777,1295.7266 L767,1285.7266 L402,1285.7266" fill="#FFF3CD" style="stroke:#FFEAA7;stroke-width:1;"/><path d="M767,1285.7266 L767,1295.7266 L777,1295.7266 L767,1285.7266" fill="#FFF3CD" style="stroke:#FFEAA7;stroke-width:1;"/><text fill="#856404" font-family="Verdana" font-size="13" lengthAdjust="spacing" textLength="351.1079" x="408" y="1302.7935">For any given response, the target must always retry.</text><text fill="#856404" font-family="Verdana" font-size="13" lengthAdjust="spacing" textLength="314.4756" x="408" y="1317.9263">The target may or may not retry the transaction</text><text fill="#856404" font-family="Verdana" font-size="13" lengthAdjust="spacing" textLength="73.0679" x="408" y="1333.0591">right away.</text><text fill="#856404" font-family="Verdana" font-size="13" lengthAdjust="spacing" textLength="4.1323" x="408" y="1348.1919">&#160;</text><text fill="#856404" font-family="Verdana" font-size="13" lengthAdjust="spacing" textLength="305.354" x="408" y="1363.3247">E.g. The target still attempts to send a request</text><text fill="#856404" font-family="Verdana" font-size="13" lengthAdjust="spacing" textLength="354.415" x="408" y="1378.4575">w/o enough credit (can be used mainly for debugging)</text><path d="M15,1412.5234 L264.8896,1412.5234 L264.8896,1419.6563 L254.8896,1429.6563 L15,1429.6563 L15,1412.5234" fill="#F1F3F4" style="stroke:#DADCE0;stroke-width:1;"/><rect fill="none" height="203" style="stroke:#DADCE0;stroke-width:1;" width="788.3301" x="15" y="1412.5234"/><text fill="#000000" font-family="Verdana" font-size="13" font-weight="bold" lengthAdjust="spacing" textLength="204.8896" x="30" y="1425.5903">CHI_DAT + tlm_txn_id Phase</text><path d="M25,1436.6563 L89.4429,1436.6563 L89.4429,1443.7891 L79.4429,1453.7891 L25,1453.7891 L25,1436.6563" fill="#F1F3F4" style="stroke:#DADCE0;stroke-width:1;"/><rect fill="none" height="171.8672" style="stroke:#DADCE0;stroke-width:1;" width="768.3301" x="25" y="1436.6563"/><text fill="#000000" font-family="Verdana" font-size="13" font-weight="bold" lengthAdjust="spacing" textLength="19.4429" x="40" y="1449.7231">alt</text><text fill="#000000" font-family="Verdana" font-size="11" font-weight="bold" lengthAdjust="spacing" textLength="67.5361" x="104.4429" y="1448.8667">[Accepted]</text><g class="message" data-participant-1="T" data-participant-2="I"><polygon fill="#6C757D" points="95.792,1470.9219,85.792,1474.9219,95.792,1478.9219,91.792,1474.9219" style="stroke:#6C757D;stroke-width:1;"/><line style="stroke:#6C757D;stroke-width:1;" x1="89.792" x2="396.915" y1="1474.9219" y2="1474.9219"/><text fill="#000000" font-family="Verdana" font-size="13" font-weight="bold" lengthAdjust="spacing" textLength="122.1289" x="101.792" y="1469.856">nb_transport_bw</text><text fill="#000000" font-family="Verdana" font-size="13" lengthAdjust="spacing" textLength="148.0845" x="223.9209" y="1469.856">(CHI_DAT) : ACCEPTED</text></g><line style="stroke:#DADCE0;stroke-width:1;stroke-dasharray:2,2;" x1="25" x2="793.3301" y1="1483.9219" y2="1483.9219"/><text fill="#000000" font-family="Verdana" font-size="11" font-weight="bold" lengthAdjust="spacing" textLength="43.8389" x="30" y="1494.1323">[Retry]</text><g class="message" data-participant-1="T" data-participant-2="I"><polygon fill="#6C757D" points="95.792,1555.6914,85.792,1559.6914,95.792,1563.6914,91.792,1559.6914" style="stroke:#6C757D;stroke-width:1;"/><line style="stroke:#6C757D;stroke-width:1;" x1="89.792" x2="396.915" y1="1559.6914" y2="1559.6914"/><text fill="#000000" font-family="Verdana" font-size="13" font-weight="bold" lengthAdjust="spacing" textLength="122.1289" x="101.792" y="1554.6255">nb_transport_bw</text><text fill="#000000" font-family="Verdana" font-size="13" lengthAdjust="spacing" textLength="120.98" x="223.9209" y="1554.6255">(CHI_DAT) : RETRY</text></g><path d="M402,1502.7266 L402,1602.7266 L777,1602.7266 L777,1512.7266 L767,1502.7266 L402,1502.7266" fill="#FFF3CD" style="stroke:#FFEAA7;stroke-width:1;"/><path d="M767,1502.7266 L767,1512.7266 L777,1512.7266 L767,1502.7266" fill="#FFF3CD" style="stroke:#FFEAA7;stroke-width:1;"/><text fill="#856404" font-family="Verdana" font-size="13" lengthAdjust="spacing" textLength="321.0581" x="408" y="1519.7935">For any given data, the target must always retry.</text><text fill="#856404" font-family="Verdana" font-size="13" lengthAdjust="spacing" textLength="314.4756" x="408" y="1534.9263">The target may or may not retry the transaction</text><text fill="#856404" font-family="Verdana" font-size="13" lengthAdjust="spacing" textLength="73.0679" x="408" y="1550.0591">right away.</text><text fill="#856404" font-family="Verdana" font-size="13" lengthAdjust="spacing" textLength="4.1323" x="408" y="1565.1919">&#160;</text><text fill="#856404" font-family="Verdana" font-size="13" lengthAdjust="spacing" textLength="305.354" x="408" y="1580.3247">E.g. The target still attempts to send a request</text><text fill="#856404" font-family="Verdana" font-size="13" lengthAdjust="spacing" textLength="354.415" x="408" y="1595.4575">w/o enough credit (can be used mainly for debugging)</text><!--SRC=[xLPjJnf14Fv-lsAgNvIAjGAYZJIXY2b9sr2yf6dIX2otiyV6O_UwjuYayRztxWKyv4LGszh42u4ZCy_ip3pFxkmhsyS1GXWmgPpeKggG6JQ0NmxGqsFUfM_qKF663hI1KLzQJ2paPQKdGwPivhl8VriSYnF1RktQS3IPZICUuj7K9hIocQLyKZceL1FBJV8TuSyXAWzpIp5Zz2ZpF_AgbIgVcW8fy9DK-64kc-IPzrkHLOmFvmEz5ILHlkCq4uLn3mzo5IXjSMMZX2XvV76ZX436geiQTLmvAX-KisLk72VFobP7VTOSWnzgfwMabSngixi5B88MR6D970f-rxybhkkSXHODWLncVBGfmgKaIbWH5SUfrU1Scn4p7DhCzg5Xa4iBjPhJWjDYaLpVGQ6WUbrhc8f2RMotDoeKTiw_THkTvbdBtIM7UgFHRBlDCoTfYv5-tr8HRbz6aC2OPwLMC99101wLIze4Brr8Ag7DW2LsUWEK9613wCR7LhVJ_BgNlboqWOpnwrdThHCAo2q699c7bBc3YYUqpDVatkOGnPKb_4uMWDTWWq7NNgkk9Fy-Yz8TmG8BTSz3QjyjZoqelb_K4X6t90iuqv0OX464q45hnXl7wJJTplSfQgQxauSg1QR6uCihL63YdHNPlQGzSg8J6B0nP3yK98SsSLg9SvweP0rWenH5263q2OBz73Btsjptzudj_8AHZRbcrk8WjAG2JNkU-66J17FeqHiDgFJGxqyqiUCn1Js4OOISSfOg62VQuDWR-hvK_kuKFYKz-nEhmCaHJ6fPX-1SEVTIGo6VXE8ipiOKSsRP7B_3A2Q828jIIlDCkIkai5W0UO5CfV3_aH-V6a-xko_QJxExqpWFsDqKI4NuGlzo-kdmZ-VxuebMN47CNvbe5r_QAoTQRvBw_4YRhMhvJACbDbJzwV8ndmLSJ_NhnTbOzP7IEfoTR3QvpEHrVtUcfQAS-FqfqMVnbof-9lNdU-pTGzpQnzvwSHvvxCrpl_ZC-zVSFukRJfRwmtXV-wQpNfn7t7HUE9zo_Xi0]--></g></svg>