<svg xmlns="http://www.w3.org/2000/svg" xmlns:xlink="http://www.w3.org/1999/xlink" contentStyleType="text/css" data-diagram-type="SEQUENCE" height="1265px" preserveAspectRatio="none" style="width:1091px;height:1265px;background:#FFFFFF;" version="1.1" viewBox="0 0 1091 1265" width="1091px" zoomAndPan="magnify"><defs/><g><rect fill="#FFFFFF" height="203" style="stroke:#DADCE0;stroke-width:1;" width="1059.0029" x="15" y="206.125"/><rect fill="#FFFFFF" height="171.8672" style="stroke:#DADCE0;stroke-width:1;" width="1039.0029" x="25" y="230.2578"/><rect fill="#FFFFFF" height="125.6016" style="stroke:none;stroke-width:1;" width="1039.0029" x="25" y="276.5234"/><rect fill="#FFFFFF" height="203" style="stroke:#DADCE0;stroke-width:1;" width="1059.0029" x="15" y="423.125"/><rect fill="#FFFFFF" height="171.8672" style="stroke:#DADCE0;stroke-width:1;" width="1039.0029" x="25" y="447.2578"/><rect fill="#FFFFFF" height="125.6016" style="stroke:none;stroke-width:1;" width="1039.0029" x="25" y="493.5234"/><rect fill="#FFFFFF" height="203" style="stroke:#DADCE0;stroke-width:1;" width="1059.0029" x="15" y="776.6563"/><rect fill="#FFFFFF" height="171.8672" style="stroke:#DADCE0;stroke-width:1;" width="1039.0029" x="25" y="800.7891"/><rect fill="#FFFFFF" height="125.6016" style="stroke:none;stroke-width:1;" width="1039.0029" x="25" y="847.0547"/><rect fill="#FFFFFF" height="203" style="stroke:#DADCE0;stroke-width:1;" width="1059.0029" x="15" y="993.6563"/><rect fill="#FFFFFF" height="171.8672" style="stroke:#DADCE0;stroke-width:1;" width="1039.0029" x="25" y="1017.7891"/><rect fill="#FFFFFF" height="125.6016" style="stroke:none;stroke-width:1;" width="1039.0029" x="25" y="1064.0547"/><g><title>SnIfxAdapter</title><rect fill="#000000" fill-opacity="0.00000" height="1161.0625" width="8" x="93.4453" y="52.5938"/><line style="stroke:#DEE2E6;stroke-width:1;stroke-dasharray:5,5;" x1="97" x2="97" y1="52.5938" y2="1213.6563"/></g><g><title>SnModel</title><rect fill="#000000" fill-opacity="0.00000" height="1161.0625" width="8" x="664.5879" y="52.5938"/><line style="stroke:#DEE2E6;stroke-width:1;stroke-dasharray:5,5;" x1="667.6909" x2="667.6909" y1="52.5938" y2="1213.6563"/></g><g class="participant participant-head" data-participant="I"><rect fill="#E3F2FD" height="46.5938" rx="2.5" ry="2.5" style="stroke:#DEE2E6;stroke-width:1;" width="104.8906" x="45" y="5"/><text fill="#495057" font-family="Verdana" font-size="14" lengthAdjust="spacing" textLength="90.8906" x="52" y="24.9951">SnIfxAdapter</text><text fill="#495057" font-family="Verdana" font-size="14" lengthAdjust="spacing" textLength="65.584" x="64.6533" y="41.292">(Initiator)</text></g><g class="participant participant-tail" data-participant="I"><rect fill="#E3F2FD" height="46.5938" rx="2.5" ry="2.5" style="stroke:#DEE2E6;stroke-width:1;" width="104.8906" x="45" y="1212.6563"/><text fill="#495057" font-family="Verdana" font-size="14" lengthAdjust="spacing" textLength="90.8906" x="52" y="1232.6514">SnIfxAdapter</text><text fill="#495057" font-family="Verdana" font-size="14" lengthAdjust="spacing" textLength="65.584" x="64.6533" y="1248.9482">(Initiator)</text></g><g class="participant participant-head" data-participant="T"><rect fill="#F3E5F5" height="46.5938" rx="2.5" ry="2.5" style="stroke:#DEE2E6;stroke-width:1;" width="73.7939" x="631.6909" y="5"/><text fill="#495057" font-family="Verdana" font-size="14" lengthAdjust="spacing" textLength="59.7939" x="638.6909" y="24.9951">SnModel</text><text fill="#495057" font-family="Verdana" font-size="14" lengthAdjust="spacing" textLength="56.7998" x="640.188" y="41.292">(Target)</text></g><g class="participant participant-tail" data-participant="T"><rect fill="#F3E5F5" height="46.5938" rx="2.5" ry="2.5" style="stroke:#DEE2E6;stroke-width:1;" width="73.7939" x="631.6909" y="1212.6563"/><text fill="#495057" font-family="Verdana" font-size="14" lengthAdjust="spacing" textLength="59.7939" x="638.6909" y="1232.6514">SnModel</text><text fill="#495057" font-family="Verdana" font-size="14" lengthAdjust="spacing" textLength="56.7998" x="640.188" y="1248.9482">(Target)</text></g><rect fill="#FFFFFF" height="3" style="stroke:#FFFFFF;stroke-width:1;" width="1079.0029" x="5" y="83.1602"/><line style="stroke:#000000;stroke-width:0.5;" x1="5" x2="1084.0029" y1="83.1602" y2="83.1602"/><line style="stroke:#000000;stroke-width:0.5;" x1="5" x2="1084.0029" y1="86.1602" y2="86.1602"/><rect fill="#FFFFFF" height="23.1328" style="stroke:#000000;stroke-width:1;" width="166.8135" x="461.0947" y="72.5938"/><text fill="#000000" font-family="Verdana" font-size="13" font-weight="bold" lengthAdjust="spacing" textLength="148.2876" x="467.0947" y="88.6606">Forward Path Credit</text><g class="message" data-participant-1="T" data-participant-2="I"><polygon fill="#6C757D" points="108.4453,133.4258,98.4453,137.4258,108.4453,141.4258,104.4453,137.4258" style="stroke:#6C757D;stroke-width:1;"/><line style="stroke:#6C757D;stroke-width:1;stroke-dasharray:2,2;" x1="102.4453" x2="667.5879" y1="137.4258" y2="137.4258"/><text fill="#000000" font-family="Verdana" font-size="13" font-weight="bold" lengthAdjust="spacing" textLength="122.1289" x="114.4453" y="132.3599">nb_transport_bw</text><text fill="#000000" font-family="Verdana" font-size="13" lengthAdjust="spacing" textLength="425.0137" x="236.5742" y="132.3599">(Phase(transport_type=CREDIT, credits=&lt;credits&gt;)) : ACCEPTED</text></g><path d="M673,110.7266 L673,150.7266 L1061,150.7266 L1061,120.7266 L1051,110.7266 L673,110.7266" fill="#FFF3CD" style="stroke:#FFEAA7;stroke-width:1;"/><path d="M1051,110.7266 L1051,120.7266 L1061,120.7266 L1051,110.7266" fill="#FFF3CD" style="stroke:#FFEAA7;stroke-width:1;"/><text fill="#856404" font-family="Verdana" font-size="13" lengthAdjust="spacing" textLength="367.5229" x="679" y="127.7935">This transaction will contain credit information for either</text><text fill="#856404" font-family="Verdana" font-size="13" lengthAdjust="spacing" textLength="272.4922" x="679" y="142.9263">CHI_REQ or CHI_DATA in the forward path</text><rect fill="#FFFFFF" height="3" style="stroke:#FFFFFF;stroke-width:1;" width="1079.0029" x="5" y="176.5586"/><line style="stroke:#000000;stroke-width:0.5;" x1="5" x2="1084.0029" y1="176.5586" y2="176.5586"/><line style="stroke:#000000;stroke-width:0.5;" x1="5" x2="1084.0029" y1="179.5586" y2="179.5586"/><rect fill="#FFFFFF" height="23.1328" style="stroke:#000000;stroke-width:1;" width="216.1855" x="436.4087" y="165.9922"/><text fill="#000000" font-family="Verdana" font-size="13" font-weight="bold" lengthAdjust="spacing" textLength="197.6597" x="442.4087" y="182.0591">Forward Path Transactions</text><path d="M15,206.125 L210.6299,206.125 L210.6299,213.2578 L200.6299,223.2578 L15,223.2578 L15,206.125" fill="#F1F3F4" style="stroke:#DADCE0;stroke-width:1;"/><rect fill="none" height="203" style="stroke:#DADCE0;stroke-width:1;" width="1059.0029" x="15" y="206.125"/><text fill="#000000" font-family="Verdana" font-size="13" font-weight="bold" lengthAdjust="spacing" textLength="150.6299" x="30" y="219.1919">CHI REQ Transaction</text><path d="M25,230.2578 L89.4429,230.2578 L89.4429,237.3906 L79.4429,247.3906 L25,247.3906 L25,230.2578" fill="#F1F3F4" style="stroke:#DADCE0;stroke-width:1;"/><rect fill="none" height="171.8672" style="stroke:#DADCE0;stroke-width:1;" width="1039.0029" x="25" y="230.2578"/><text fill="#000000" font-family="Verdana" font-size="13" font-weight="bold" lengthAdjust="spacing" textLength="19.4429" x="40" y="243.3247">alt</text><text fill="#000000" font-family="Verdana" font-size="11" font-weight="bold" lengthAdjust="spacing" textLength="67.5361" x="104.4429" y="242.4683">[Accepted]</text><g class="message" data-participant-1="I" data-participant-2="T"><polygon fill="#6C757D" points="656.5879,264.5234,666.5879,268.5234,656.5879,272.5234,660.5879,268.5234" style="stroke:#6C757D;stroke-width:1;"/><line style="stroke:#6C757D;stroke-width:1;" x1="97.4453" x2="662.5879" y1="268.5234" y2="268.5234"/><text fill="#000000" font-family="Verdana" font-size="13" font-weight="bold" lengthAdjust="spacing" textLength="118.479" x="104.4453" y="263.4575">nb_transport_fw</text><text fill="#000000" font-family="Verdana" font-size="13" lengthAdjust="spacing" textLength="341.0596" x="222.9243" y="263.4575">(Phase(transport_type=TRANSACTION)) : ACCEPTED</text></g><line style="stroke:#DADCE0;stroke-width:1;stroke-dasharray:2,2;" x1="25" x2="1064.0029" y1="277.5234" y2="277.5234"/><text fill="#000000" font-family="Verdana" font-size="11" font-weight="bold" lengthAdjust="spacing" textLength="43.8389" x="30" y="287.7339">[Retry]</text><g class="message" data-participant-1="I" data-participant-2="T"><polygon fill="#6C757D" points="656.5879,349.293,666.5879,353.293,656.5879,357.293,660.5879,353.293" style="stroke:#6C757D;stroke-width:1;"/><line style="stroke:#6C757D;stroke-width:1;" x1="97.4453" x2="662.5879" y1="353.293" y2="353.293"/><text fill="#000000" font-family="Verdana" font-size="13" font-weight="bold" lengthAdjust="spacing" textLength="118.479" x="104.4453" y="348.2271">nb_transport_fw</text><text fill="#000000" font-family="Verdana" font-size="13" lengthAdjust="spacing" textLength="313.9551" x="222.9243" y="348.2271">(Phase(transport_type=TRANSACTION)) : RETRY</text></g><path d="M673,296.3281 L673,396.3281 L1048,396.3281 L1048,306.3281 L1038,296.3281 L673,296.3281" fill="#FFF3CD" style="stroke:#FFEAA7;stroke-width:1;"/><path d="M1038,296.3281 L1038,306.3281 L1048,306.3281 L1038,296.3281" fill="#FFF3CD" style="stroke:#FFEAA7;stroke-width:1;"/><text fill="#856404" font-family="Verdana" font-size="13" lengthAdjust="spacing" textLength="352.2568" x="679" y="313.395">For any given request, the initiator must always retry.</text><text fill="#856404" font-family="Verdana" font-size="13" lengthAdjust="spacing" textLength="325.2539" x="679" y="328.5278">The initiator may or may not retry the transaction</text><text fill="#856404" font-family="Verdana" font-size="13" lengthAdjust="spacing" textLength="73.0679" x="679" y="343.6606">right away.</text><text fill="#856404" font-family="Verdana" font-size="13" lengthAdjust="spacing" textLength="4.1323" x="679" y="358.7935">&#160;</text><text fill="#856404" font-family="Verdana" font-size="13" lengthAdjust="spacing" textLength="316.1323" x="679" y="373.9263">E.g. The initiator still attempts to send a request</text><text fill="#856404" font-family="Verdana" font-size="13" lengthAdjust="spacing" textLength="354.415" x="679" y="389.0591">w/o enough credit (can be used mainly for debugging)</text><path d="M15,423.125 L224.7471,423.125 L224.7471,430.2578 L214.7471,440.2578 L15,440.2578 L15,423.125" fill="#F1F3F4" style="stroke:#DADCE0;stroke-width:1;"/><rect fill="none" height="203" style="stroke:#DADCE0;stroke-width:1;" width="1059.0029" x="15" y="423.125"/><text fill="#000000" font-family="Verdana" font-size="13" font-weight="bold" lengthAdjust="spacing" textLength="164.7471" x="30" y="436.1919">CHI WDAT Transaction</text><path d="M25,447.2578 L89.4429,447.2578 L89.4429,454.3906 L79.4429,464.3906 L25,464.3906 L25,447.2578" fill="#F1F3F4" style="stroke:#DADCE0;stroke-width:1;"/><rect fill="none" height="171.8672" style="stroke:#DADCE0;stroke-width:1;" width="1039.0029" x="25" y="447.2578"/><text fill="#000000" font-family="Verdana" font-size="13" font-weight="bold" lengthAdjust="spacing" textLength="19.4429" x="40" y="460.3247">alt</text><text fill="#000000" font-family="Verdana" font-size="11" font-weight="bold" lengthAdjust="spacing" textLength="67.5361" x="104.4429" y="459.4683">[Accepted]</text><g class="message" data-participant-1="I" data-participant-2="T"><polygon fill="#6C757D" points="656.5879,481.5234,666.5879,485.5234,656.5879,489.5234,660.5879,485.5234" style="stroke:#6C757D;stroke-width:1;"/><line style="stroke:#6C757D;stroke-width:1;" x1="97.4453" x2="662.5879" y1="485.5234" y2="485.5234"/><text fill="#000000" font-family="Verdana" font-size="13" font-weight="bold" lengthAdjust="spacing" textLength="118.479" x="104.4453" y="480.4575">nb_transport_fw</text><text fill="#000000" font-family="Verdana" font-size="13" lengthAdjust="spacing" textLength="341.0596" x="222.9243" y="480.4575">(Phase(transport_type=TRANSACTION)) : ACCEPTED</text></g><line style="stroke:#DADCE0;stroke-width:1;stroke-dasharray:2,2;" x1="25" x2="1064.0029" y1="494.5234" y2="494.5234"/><text fill="#000000" font-family="Verdana" font-size="11" font-weight="bold" lengthAdjust="spacing" textLength="43.8389" x="30" y="504.7339">[Retry]</text><g class="message" data-participant-1="I" data-participant-2="T"><polygon fill="#6C757D" points="656.5879,566.293,666.5879,570.293,656.5879,574.293,660.5879,570.293" style="stroke:#6C757D;stroke-width:1;"/><line style="stroke:#6C757D;stroke-width:1;" x1="97.4453" x2="662.5879" y1="570.293" y2="570.293"/><text fill="#000000" font-family="Verdana" font-size="13" font-weight="bold" lengthAdjust="spacing" textLength="118.479" x="104.4453" y="565.2271">nb_transport_fw</text><text fill="#000000" font-family="Verdana" font-size="13" lengthAdjust="spacing" textLength="313.9551" x="222.9243" y="565.2271">(Phase(transport_type=TRANSACTION)) : RETRY</text></g><path d="M673,513.3281 L673,613.3281 L1048,613.3281 L1048,523.3281 L1038,513.3281 L673,513.3281" fill="#FFF3CD" style="stroke:#FFEAA7;stroke-width:1;"/><path d="M1038,513.3281 L1038,523.3281 L1048,523.3281 L1038,513.3281" fill="#FFF3CD" style="stroke:#FFEAA7;stroke-width:1;"/><text fill="#856404" font-family="Verdana" font-size="13" lengthAdjust="spacing" textLength="331.8364" x="679" y="530.395">For any given data, the initiator must always retry.</text><text fill="#856404" font-family="Verdana" font-size="13" lengthAdjust="spacing" textLength="325.2539" x="679" y="545.5278">The initiator may or may not retry the transaction</text><text fill="#856404" font-family="Verdana" font-size="13" lengthAdjust="spacing" textLength="73.0679" x="679" y="560.6606">right away.</text><text fill="#856404" font-family="Verdana" font-size="13" lengthAdjust="spacing" textLength="4.1323" x="679" y="575.7935">&#160;</text><text fill="#856404" font-family="Verdana" font-size="13" lengthAdjust="spacing" textLength="316.1323" x="679" y="590.9263">E.g. The initiator still attempts to send a request</text><text fill="#856404" font-family="Verdana" font-size="13" lengthAdjust="spacing" textLength="354.415" x="679" y="606.0591">w/o enough credit (can be used mainly for debugging)</text><rect fill="#FFFFFF" height="3" style="stroke:#FFFFFF;stroke-width:1;" width="1079.0029" x="5" y="653.6914"/><line style="stroke:#000000;stroke-width:0.5;" x1="5" x2="1084.0029" y1="653.6914" y2="653.6914"/><line style="stroke:#000000;stroke-width:0.5;" x1="5" x2="1084.0029" y1="656.6914" y2="656.6914"/><rect fill="#FFFFFF" height="23.1328" style="stroke:#000000;stroke-width:1;" width="177.6235" x="455.6897" y="643.125"/><text fill="#000000" font-family="Verdana" font-size="13" font-weight="bold" lengthAdjust="spacing" textLength="159.0977" x="461.6897" y="659.1919">Backward Path Credit</text><g class="message" data-participant-1="I" data-participant-2="T"><polygon fill="#6C757D" points="656.5879,703.957,666.5879,707.957,656.5879,711.957,660.5879,707.957" style="stroke:#6C757D;stroke-width:1;"/><line style="stroke:#6C757D;stroke-width:1;stroke-dasharray:2,2;" x1="97.4453" x2="662.5879" y1="707.957" y2="707.957"/><text fill="#000000" font-family="Verdana" font-size="13" font-weight="bold" lengthAdjust="spacing" textLength="118.479" x="104.4453" y="702.8911">nb_transport_fw</text><text fill="#000000" font-family="Verdana" font-size="13" lengthAdjust="spacing" textLength="425.0137" x="222.9243" y="702.8911">(Phase(transport_type=CREDIT, credits=&lt;credits&gt;)) : ACCEPTED</text></g><path d="M673,681.2578 L673,721.2578 L1061,721.2578 L1061,691.2578 L1051,681.2578 L673,681.2578" fill="#FFF3CD" style="stroke:#FFEAA7;stroke-width:1;"/><path d="M1051,681.2578 L1051,691.2578 L1061,691.2578 L1051,681.2578" fill="#FFF3CD" style="stroke:#FFEAA7;stroke-width:1;"/><text fill="#856404" font-family="Verdana" font-size="13" lengthAdjust="spacing" textLength="367.5229" x="679" y="698.3247">This transaction will contain credit information for either</text><text fill="#856404" font-family="Verdana" font-size="13" lengthAdjust="spacing" textLength="283.1563" x="679" y="713.4575">CHI_RSP or CHI_DATA in the backward path</text><rect fill="#FFFFFF" height="3" style="stroke:#FFFFFF;stroke-width:1;" width="1079.0029" x="5" y="747.0898"/><line style="stroke:#000000;stroke-width:0.5;" x1="5" x2="1084.0029" y1="747.0898" y2="747.0898"/><line style="stroke:#000000;stroke-width:0.5;" x1="5" x2="1084.0029" y1="750.0898" y2="750.0898"/><rect fill="#FFFFFF" height="23.1328" style="stroke:#000000;stroke-width:1;" width="226.9956" x="431.0037" y="736.5234"/><text fill="#000000" font-family="Verdana" font-size="13" font-weight="bold" lengthAdjust="spacing" textLength="208.4697" x="437.0037" y="752.5903">Backward Path Transactions</text><path d="M15,776.6563 L219.1294,776.6563 L219.1294,783.7891 L209.1294,793.7891 L15,793.7891 L15,776.6563" fill="#F1F3F4" style="stroke:#DADCE0;stroke-width:1;"/><rect fill="none" height="203" style="stroke:#DADCE0;stroke-width:1;" width="1059.0029" x="15" y="776.6563"/><text fill="#000000" font-family="Verdana" font-size="13" font-weight="bold" lengthAdjust="spacing" textLength="159.1294" x="30" y="789.7231">CHI CRSP Transaction</text><path d="M25,800.7891 L89.4429,800.7891 L89.4429,807.9219 L79.4429,817.9219 L25,817.9219 L25,800.7891" fill="#F1F3F4" style="stroke:#DADCE0;stroke-width:1;"/><rect fill="none" height="171.8672" style="stroke:#DADCE0;stroke-width:1;" width="1039.0029" x="25" y="800.7891"/><text fill="#000000" font-family="Verdana" font-size="13" font-weight="bold" lengthAdjust="spacing" textLength="19.4429" x="40" y="813.856">alt</text><text fill="#000000" font-family="Verdana" font-size="11" font-weight="bold" lengthAdjust="spacing" textLength="67.5361" x="104.4429" y="812.9995">[Accepted]</text><g class="message" data-participant-1="T" data-participant-2="I"><polygon fill="#6C757D" points="108.4453,835.0547,98.4453,839.0547,108.4453,843.0547,104.4453,839.0547" style="stroke:#6C757D;stroke-width:1;"/><line style="stroke:#6C757D;stroke-width:1;" x1="102.4453" x2="667.5879" y1="839.0547" y2="839.0547"/><text fill="#000000" font-family="Verdana" font-size="13" font-weight="bold" lengthAdjust="spacing" textLength="122.1289" x="114.4453" y="833.9888">nb_transport_bw</text><text fill="#000000" font-family="Verdana" font-size="13" lengthAdjust="spacing" textLength="341.0596" x="236.5742" y="833.9888">(Phase(transport_type=TRANSACTION)) : ACCEPTED</text></g><line style="stroke:#DADCE0;stroke-width:1;stroke-dasharray:2,2;" x1="25" x2="1064.0029" y1="848.0547" y2="848.0547"/><text fill="#000000" font-family="Verdana" font-size="11" font-weight="bold" lengthAdjust="spacing" textLength="43.8389" x="30" y="858.2651">[Retry]</text><g class="message" data-participant-1="T" data-participant-2="I"><polygon fill="#6C757D" points="108.4453,919.8242,98.4453,923.8242,108.4453,927.8242,104.4453,923.8242" style="stroke:#6C757D;stroke-width:1;"/><line style="stroke:#6C757D;stroke-width:1;" x1="102.4453" x2="667.5879" y1="923.8242" y2="923.8242"/><text fill="#000000" font-family="Verdana" font-size="13" font-weight="bold" lengthAdjust="spacing" textLength="122.1289" x="114.4453" y="918.7583">nb_transport_bw</text><text fill="#000000" font-family="Verdana" font-size="13" lengthAdjust="spacing" textLength="313.9551" x="236.5742" y="918.7583">(Phase(transport_type=TRANSACTION)) : RETRY</text></g><path d="M673,866.8594 L673,966.8594 L1048,966.8594 L1048,876.8594 L1038,866.8594 L673,866.8594" fill="#FFF3CD" style="stroke:#FFEAA7;stroke-width:1;"/><path d="M1038,866.8594 L1038,876.8594 L1048,876.8594 L1038,866.8594" fill="#FFF3CD" style="stroke:#FFEAA7;stroke-width:1;"/><text fill="#856404" font-family="Verdana" font-size="13" lengthAdjust="spacing" textLength="351.1079" x="679" y="883.9263">For any given response, the target must always retry.</text><text fill="#856404" font-family="Verdana" font-size="13" lengthAdjust="spacing" textLength="314.4756" x="679" y="899.0591">The target may or may not retry the transaction</text><text fill="#856404" font-family="Verdana" font-size="13" lengthAdjust="spacing" textLength="73.0679" x="679" y="914.1919">right away.</text><text fill="#856404" font-family="Verdana" font-size="13" lengthAdjust="spacing" textLength="4.1323" x="679" y="929.3247">&#160;</text><text fill="#856404" font-family="Verdana" font-size="13" lengthAdjust="spacing" textLength="305.354" x="679" y="944.4575">E.g. The target still attempts to send a request</text><text fill="#856404" font-family="Verdana" font-size="13" lengthAdjust="spacing" textLength="354.415" x="679" y="959.5903">w/o enough credit (can be used mainly for debugging)</text><path d="M15,993.6563 L220.418,993.6563 L220.418,1000.7891 L210.418,1010.7891 L15,1010.7891 L15,993.6563" fill="#F1F3F4" style="stroke:#DADCE0;stroke-width:1;"/><rect fill="none" height="203" style="stroke:#DADCE0;stroke-width:1;" width="1059.0029" x="15" y="993.6563"/><text fill="#000000" font-family="Verdana" font-size="13" font-weight="bold" lengthAdjust="spacing" textLength="160.418" x="30" y="1006.7231">CHI RDAT Transaction</text><path d="M25,1017.7891 L89.4429,1017.7891 L89.4429,1024.9219 L79.4429,1034.9219 L25,1034.9219 L25,1017.7891" fill="#F1F3F4" style="stroke:#DADCE0;stroke-width:1;"/><rect fill="none" height="171.8672" style="stroke:#DADCE0;stroke-width:1;" width="1039.0029" x="25" y="1017.7891"/><text fill="#000000" font-family="Verdana" font-size="13" font-weight="bold" lengthAdjust="spacing" textLength="19.4429" x="40" y="1030.856">alt</text><text fill="#000000" font-family="Verdana" font-size="11" font-weight="bold" lengthAdjust="spacing" textLength="67.5361" x="104.4429" y="1029.9995">[Accepted]</text><g class="message" data-participant-1="T" data-participant-2="I"><polygon fill="#6C757D" points="108.4453,1052.0547,98.4453,1056.0547,108.4453,1060.0547,104.4453,1056.0547" style="stroke:#6C757D;stroke-width:1;"/><line style="stroke:#6C757D;stroke-width:1;" x1="102.4453" x2="667.5879" y1="1056.0547" y2="1056.0547"/><text fill="#000000" font-family="Verdana" font-size="13" font-weight="bold" lengthAdjust="spacing" textLength="122.1289" x="114.4453" y="1050.9888">nb_transport_bw</text><text fill="#000000" font-family="Verdana" font-size="13" lengthAdjust="spacing" textLength="341.0596" x="236.5742" y="1050.9888">(Phase(transport_type=TRANSACTION)) : ACCEPTED</text></g><line style="stroke:#DADCE0;stroke-width:1;stroke-dasharray:2,2;" x1="25" x2="1064.0029" y1="1065.0547" y2="1065.0547"/><text fill="#000000" font-family="Verdana" font-size="11" font-weight="bold" lengthAdjust="spacing" textLength="43.8389" x="30" y="1075.2651">[Retry]</text><g class="message" data-participant-1="T" data-participant-2="I"><polygon fill="#6C757D" points="108.4453,1136.8242,98.4453,1140.8242,108.4453,1144.8242,104.4453,1140.8242" style="stroke:#6C757D;stroke-width:1;"/><line style="stroke:#6C757D;stroke-width:1;" x1="102.4453" x2="667.5879" y1="1140.8242" y2="1140.8242"/><text fill="#000000" font-family="Verdana" font-size="13" font-weight="bold" lengthAdjust="spacing" textLength="122.1289" x="114.4453" y="1135.7583">nb_transport_bw</text><text fill="#000000" font-family="Verdana" font-size="13" lengthAdjust="spacing" textLength="313.9551" x="236.5742" y="1135.7583">(Phase(transport_type=TRANSACTION)) : RETRY</text></g><path d="M673,1083.8594 L673,1183.8594 L1048,1183.8594 L1048,1093.8594 L1038,1083.8594 L673,1083.8594" fill="#FFF3CD" style="stroke:#FFEAA7;stroke-width:1;"/><path d="M1038,1083.8594 L1038,1093.8594 L1048,1093.8594 L1038,1083.8594" fill="#FFF3CD" style="stroke:#FFEAA7;stroke-width:1;"/><text fill="#856404" font-family="Verdana" font-size="13" lengthAdjust="spacing" textLength="321.0581" x="679" y="1100.9263">For any given data, the target must always retry.</text><text fill="#856404" font-family="Verdana" font-size="13" lengthAdjust="spacing" textLength="314.4756" x="679" y="1116.0591">The target may or may not retry the transaction</text><text fill="#856404" font-family="Verdana" font-size="13" lengthAdjust="spacing" textLength="73.0679" x="679" y="1131.1919">right away.</text><text fill="#856404" font-family="Verdana" font-size="13" lengthAdjust="spacing" textLength="4.1323" x="679" y="1146.3247">&#160;</text><text fill="#856404" font-family="Verdana" font-size="13" lengthAdjust="spacing" textLength="305.354" x="679" y="1161.4575">E.g. The target still attempts to send a request</text><text fill="#856404" font-family="Verdana" font-size="13" lengthAdjust="spacing" textLength="354.415" x="679" y="1176.5903">w/o enough credit (can be used mainly for debugging)</text><!--SRC=[xLLTRzem57tFhxXhNm0LrXKexLGgiPHgaRQEqKZJf4cLYQ-3rM1djXb3K__x71CWVBGRMwLDw_m0Zk_nyVquldvcXZX2I1F2XQTlkKY98YFuve4T0nBTnagE1VLb8XLCXjoWirYKuH5FYJ0vTXj-dvsmKqQMTgaegjn64O_mU65ZKfZSqZXj7ZPRpdBdVZL-7gE8i70KKKfESlnnr6gswCAKS8PlkC1N6zwuiObxmAjiVxf9z8BLMMCDjC92Q8I7XGY4DFXWeXYhHtHxeXX3GbhR4dNIF6uSDl9ZxZolM9MzQn6mhnrAKeFgaoW5WXjEZ5JbFI0Q0jZ7EZjYT7tJMqaniVYGg1ZD31nQ9-hOP4tFyzfjk9HgGXI57Z53y1LIRg3TzW8ugrOjzYLKAc9mOnGHEfNAt0mcbKgfDoGQIyj5CqsnxVUx5q5u094ZqUspV79UBbkQZkztUs7tmdFPKpmU6XjhEEGQ70-939S29Zn98B9PiHBEcO0B9jM8EBkT0NAhSsLt-w-3ctxtFTYrR7hH2JiM3DQQuLnOgGtBGq5TqJO33fT7woniL_sC33BUWjNLXIG6Eb64jWhByWPGFT-MA7Plei9-v-gwuuV1kwlLr6Hqc6Y4FXerVSGJ-jsm_t71jrA1-R1f0IAc4FClA41bbrIR0vTBFbSRZCRQs2nCo5HRYFMnLc08Lw5a2lcVFM-6TcncBQcpuTm1OfbhNc6vMujhQyJQP18Xnk0eDLOyqdOKMryozxcmU_9S0WevZeTpAPKY8c20CDP8hMzS95CdAOg3SHnp4PSNsnUYoJyo5Na5WNomSdl22g74aF_oM9U7xI_P0xEzerPtBT8VwgZNlMqTTJ2FQxEbhePyVq_rC-gVl39dExu-kr-PtptX5vggPHCQPzV6k3VvntTcZdlS2vEp_YtDjBz3C_q7bR5ifazU5Ty1]--></g></svg>