<svg xmlns="http://www.w3.org/2000/svg" xmlns:xlink="http://www.w3.org/1999/xlink" contentStyleType="text/css" data-diagram-type="SEQUENCE" height="1265px" preserveAspectRatio="none" style="width:832px;height:1265px;background:#FFFFFF;" version="1.1" viewBox="0 0 832 1265" width="832px" zoomAndPan="magnify"><defs/><g><rect fill="#FFFFFF" height="203" style="stroke:#DADCE0;stroke-width:1;" width="800.9834" x="15" y="206.125"/><rect fill="#FFFFFF" height="171.8672" style="stroke:#DADCE0;stroke-width:1;" width="780.9834" x="25" y="230.2578"/><rect fill="#FFFFFF" height="125.6016" style="stroke:none;stroke-width:1;" width="780.9834" x="25" y="276.5234"/><rect fill="#FFFFFF" height="203" style="stroke:#DADCE0;stroke-width:1;" width="800.9834" x="15" y="423.125"/><rect fill="#FFFFFF" height="171.8672" style="stroke:#DADCE0;stroke-width:1;" width="780.9834" x="25" y="447.2578"/><rect fill="#FFFFFF" height="125.6016" style="stroke:none;stroke-width:1;" width="780.9834" x="25" y="493.5234"/><rect fill="#FFFFFF" height="203" style="stroke:#DADCE0;stroke-width:1;" width="800.9834" x="15" y="776.6563"/><rect fill="#FFFFFF" height="171.8672" style="stroke:#DADCE0;stroke-width:1;" width="780.9834" x="25" y="800.7891"/><rect fill="#FFFFFF" height="125.6016" style="stroke:none;stroke-width:1;" width="780.9834" x="25" y="847.0547"/><rect fill="#FFFFFF" height="203" style="stroke:#DADCE0;stroke-width:1;" width="800.9834" x="15" y="993.6563"/><rect fill="#FFFFFF" height="171.8672" style="stroke:#DADCE0;stroke-width:1;" width="780.9834" x="25" y="1017.7891"/><rect fill="#FFFFFF" height="125.6016" style="stroke:none;stroke-width:1;" width="780.9834" x="25" y="1064.0547"/><g><title>SnIfxAdapter</title><rect fill="#000000" fill-opacity="0.00000" height="1161.0625" width="8" x="93.4453" y="52.5938"/><line style="stroke:#DEE2E6;stroke-width:1;" x1="97" x2="97" y1="52.5938" y2="1213.6563"/></g><g><title>SnModel</title><rect fill="#000000" fill-opacity="0.00000" height="1161.0625" width="8" x="406.5684" y="52.5938"/><line style="stroke:#DEE2E6;stroke-width:1;" x1="409.6714" x2="409.6714" y1="52.5938" y2="1213.6563"/></g><g class="participant participant-head" data-participant="I"><rect fill="#E3F2FD" height="46.5938" rx="2.5" ry="2.5" style="stroke:#DEE2E6;stroke-width:1;" width="104.8906" x="45" y="5"/><text fill="#495057" font-family="Verdana" font-size="14" lengthAdjust="spacing" textLength="90.8906" x="52" y="24.9951">SnIfxAdapter</text><text fill="#495057" font-family="Verdana" font-size="14" lengthAdjust="spacing" textLength="65.584" x="64.6533" y="41.292">(Initiator)</text></g><g class="participant participant-tail" data-participant="I"><rect fill="#E3F2FD" height="46.5938" rx="2.5" ry="2.5" style="stroke:#DEE2E6;stroke-width:1;" width="104.8906" x="45" y="1212.6563"/><text fill="#495057" font-family="Verdana" font-size="14" lengthAdjust="spacing" textLength="90.8906" x="52" y="1232.6514">SnIfxAdapter</text><text fill="#495057" font-family="Verdana" font-size="14" lengthAdjust="spacing" textLength="65.584" x="64.6533" y="1248.9482">(Initiator)</text></g><g class="participant participant-head" data-participant="T"><rect fill="#F3E5F5" height="46.5938" rx="2.5" ry="2.5" style="stroke:#DEE2E6;stroke-width:1;" width="73.7939" x="373.6714" y="5"/><text fill="#495057" font-family="Verdana" font-size="14" lengthAdjust="spacing" textLength="59.7939" x="380.6714" y="24.9951">SnModel</text><text fill="#495057" font-family="Verdana" font-size="14" lengthAdjust="spacing" textLength="56.7998" x="382.1685" y="41.292">(Target)</text></g><g class="participant participant-tail" data-participant="T"><rect fill="#F3E5F5" height="46.5938" rx="2.5" ry="2.5" style="stroke:#DEE2E6;stroke-width:1;" width="73.7939" x="373.6714" y="1212.6563"/><text fill="#495057" font-family="Verdana" font-size="14" lengthAdjust="spacing" textLength="59.7939" x="380.6714" y="1232.6514">SnModel</text><text fill="#495057" font-family="Verdana" font-size="14" lengthAdjust="spacing" textLength="56.7998" x="382.1685" y="1248.9482">(Target)</text></g><rect fill="#FFFFFF" height="3" style="stroke:#FFFFFF;stroke-width:1;" width="820.9834" x="5" y="83.1602"/><line style="stroke:#000000;stroke-width:0.5;" x1="5" x2="825.9834" y1="83.1602" y2="83.1602"/><line style="stroke:#000000;stroke-width:0.5;" x1="5" x2="825.9834" y1="86.1602" y2="86.1602"/><rect fill="#FFFFFF" height="23.1328" style="stroke:#000000;stroke-width:1;" width="166.8135" x="332.085" y="72.5938"/><text fill="#000000" font-family="Verdana" font-size="13" font-weight="bold" lengthAdjust="spacing" textLength="148.2876" x="338.085" y="88.6606">Forward Path Credit</text><g class="message" data-participant-1="T" data-participant-2="I"><polygon fill="#6C757D" points="108.4453,133.4258,98.4453,137.4258,108.4453,141.4258,104.4453,137.4258" style="stroke:#6C757D;stroke-width:1;"/><line style="stroke:#6C757D;stroke-width:1;stroke-dasharray:2.0,2.0;" x1="102.4453" x2="409.5684" y1="137.4258" y2="137.4258"/><text fill="#000000" font-family="Verdana" font-size="13" font-weight="bold" lengthAdjust="spacing" textLength="122.1289" x="114.4453" y="132.3599">nb_transport_bw</text><text fill="#000000" font-family="Verdana" font-size="13" lengthAdjust="spacing" textLength="166.9941" x="236.5742" y="132.3599">(FW_CREDIT) : ACCEPTED</text></g><path d="M415,110.7266 L415,150.7266 L803,150.7266 L803,120.7266 L793,110.7266 L415,110.7266" fill="#FFF3CD" style="stroke:#FFEAA7;stroke-width:1;"/><path d="M793,110.7266 L793,120.7266 L803,120.7266 L793,110.7266" fill="#FFF3CD" style="stroke:#FFEAA7;stroke-width:1;"/><text fill="#856404" font-family="Verdana" font-size="13" lengthAdjust="spacing" textLength="367.5229" x="421" y="127.7935">This transaction will contain credit information for either</text><text fill="#856404" font-family="Verdana" font-size="13" lengthAdjust="spacing" textLength="272.4922" x="421" y="142.9263">CHI_REQ or CHI_DATA in the forward path</text><rect fill="#FFFFFF" height="3" style="stroke:#FFFFFF;stroke-width:1;" width="820.9834" x="5" y="176.5586"/><line style="stroke:#000000;stroke-width:0.5;" x1="5" x2="825.9834" y1="176.5586" y2="176.5586"/><line style="stroke:#000000;stroke-width:0.5;" x1="5" x2="825.9834" y1="179.5586" y2="179.5586"/><rect fill="#FFFFFF" height="23.1328" style="stroke:#000000;stroke-width:1;" width="216.1855" x="307.3989" y="165.9922"/><text fill="#000000" font-family="Verdana" font-size="13" font-weight="bold" lengthAdjust="spacing" textLength="197.6597" x="313.3989" y="182.0591">Forward Path Transactions</text><path d="M15,206.125 L265.1118,206.125 L265.1118,213.2578 L255.1118,223.2578 L15,223.2578 L15,206.125" fill="#F1F3F4" style="stroke:#DADCE0;stroke-width:1;"/><rect fill="none" height="203" style="stroke:#DADCE0;stroke-width:1;" width="800.9834" x="15" y="206.125"/><text fill="#000000" font-family="Verdana" font-size="13" font-weight="bold" lengthAdjust="spacing" textLength="205.1118" x="30" y="219.1919">CHI_REQ + tlm_txn_id Phase</text><path d="M25,230.2578 L89.4429,230.2578 L89.4429,237.3906 L79.4429,247.3906 L25,247.3906 L25,230.2578" fill="#F1F3F4" style="stroke:#DADCE0;stroke-width:1;"/><rect fill="none" height="171.8672" style="stroke:#DADCE0;stroke-width:1;" width="780.9834" x="25" y="230.2578"/><text fill="#000000" font-family="Verdana" font-size="13" font-weight="bold" lengthAdjust="spacing" textLength="19.4429" x="40" y="243.3247">alt</text><text fill="#000000" font-family="Verdana" font-size="11" font-weight="bold" lengthAdjust="spacing" textLength="67.5361" x="104.4429" y="242.4683">[Accepted]</text><g class="message" data-participant-1="I" data-participant-2="T"><polygon fill="#6C757D" points="398.5684,264.5234,408.5684,268.5234,398.5684,272.5234,402.5684,268.5234" style="stroke:#6C757D;stroke-width:1;"/><line style="stroke:#6C757D;stroke-width:1;" x1="97.4453" x2="404.5684" y1="268.5234" y2="268.5234"/><text fill="#000000" font-family="Verdana" font-size="13" font-weight="bold" lengthAdjust="spacing" textLength="118.479" x="104.4453" y="263.4575">nb_transport_fw</text><text fill="#000000" font-family="Verdana" font-size="13" lengthAdjust="spacing" textLength="148.7192" x="222.9243" y="263.4575">(CHI_REQ) : ACCEPTED</text></g><line style="stroke:#DADCE0;stroke-width:1;stroke-dasharray:2.0,2.0;" x1="25" x2="805.9834" y1="277.5234" y2="277.5234"/><text fill="#000000" font-family="Verdana" font-size="11" font-weight="bold" lengthAdjust="spacing" textLength="43.8389" x="30" y="287.7339">[Retry]</text><g class="message" data-participant-1="I" data-participant-2="T"><polygon fill="#6C757D" points="398.5684,349.293,408.5684,353.293,398.5684,357.293,402.5684,353.293" style="stroke:#6C757D;stroke-width:1;"/><line style="stroke:#6C757D;stroke-width:1;" x1="97.4453" x2="404.5684" y1="353.293" y2="353.293"/><text fill="#000000" font-family="Verdana" font-size="13" font-weight="bold" lengthAdjust="spacing" textLength="118.479" x="104.4453" y="348.2271">nb_transport_fw</text><text fill="#000000" font-family="Verdana" font-size="13" lengthAdjust="spacing" textLength="121.6147" x="222.9243" y="348.2271">(CHI_REQ) : RETRY</text></g><path d="M415,296.3281 L415,396.3281 L790,396.3281 L790,306.3281 L780,296.3281 L415,296.3281" fill="#FFF3CD" style="stroke:#FFEAA7;stroke-width:1;"/><path d="M780,296.3281 L780,306.3281 L790,306.3281 L780,296.3281" fill="#FFF3CD" style="stroke:#FFEAA7;stroke-width:1;"/><text fill="#856404" font-family="Verdana" font-size="13" lengthAdjust="spacing" textLength="352.2568" x="421" y="313.395">For any given request, the initiator must always retry.</text><text fill="#856404" font-family="Verdana" font-size="13" lengthAdjust="spacing" textLength="325.2539" x="421" y="328.5278">The initiator may or may not retry the transaction</text><text fill="#856404" font-family="Verdana" font-size="13" lengthAdjust="spacing" textLength="73.0679" x="421" y="343.6606">right away.</text><text fill="#856404" font-family="Verdana" font-size="13" lengthAdjust="spacing" textLength="4.1323" x="421" y="358.7935">&#160;</text><text fill="#856404" font-family="Verdana" font-size="13" lengthAdjust="spacing" textLength="316.1323" x="421" y="373.9263">E.g. The initiator still attempts to send a request</text><text fill="#856404" font-family="Verdana" font-size="13" lengthAdjust="spacing" textLength="354.415" x="421" y="389.0591">w/o enough credit (can be used mainly for debugging)</text><path d="M15,423.125 L264.8896,423.125 L264.8896,430.2578 L254.8896,440.2578 L15,440.2578 L15,423.125" fill="#F1F3F4" style="stroke:#DADCE0;stroke-width:1;"/><rect fill="none" height="203" style="stroke:#DADCE0;stroke-width:1;" width="800.9834" x="15" y="423.125"/><text fill="#000000" font-family="Verdana" font-size="13" font-weight="bold" lengthAdjust="spacing" textLength="204.8896" x="30" y="436.1919">CHI_DAT + tlm_txn_id Phase</text><path d="M25,447.2578 L89.4429,447.2578 L89.4429,454.3906 L79.4429,464.3906 L25,464.3906 L25,447.2578" fill="#F1F3F4" style="stroke:#DADCE0;stroke-width:1;"/><rect fill="none" height="171.8672" style="stroke:#DADCE0;stroke-width:1;" width="780.9834" x="25" y="447.2578"/><text fill="#000000" font-family="Verdana" font-size="13" font-weight="bold" lengthAdjust="spacing" textLength="19.4429" x="40" y="460.3247">alt</text><text fill="#000000" font-family="Verdana" font-size="11" font-weight="bold" lengthAdjust="spacing" textLength="67.5361" x="104.4429" y="459.4683">[Accepted]</text><g class="message" data-participant-1="I" data-participant-2="T"><polygon fill="#6C757D" points="398.5684,481.5234,408.5684,485.5234,398.5684,489.5234,402.5684,485.5234" style="stroke:#6C757D;stroke-width:1;"/><line style="stroke:#6C757D;stroke-width:1;" x1="97.4453" x2="404.5684" y1="485.5234" y2="485.5234"/><text fill="#000000" font-family="Verdana" font-size="13" font-weight="bold" lengthAdjust="spacing" textLength="118.479" x="104.4453" y="480.4575">nb_transport_fw</text><text fill="#000000" font-family="Verdana" font-size="13" lengthAdjust="spacing" textLength="148.0845" x="222.9243" y="480.4575">(CHI_DAT) : ACCEPTED</text></g><line style="stroke:#DADCE0;stroke-width:1;stroke-dasharray:2.0,2.0;" x1="25" x2="805.9834" y1="494.5234" y2="494.5234"/><text fill="#000000" font-family="Verdana" font-size="11" font-weight="bold" lengthAdjust="spacing" textLength="43.8389" x="30" y="504.7339">[Retry]</text><g class="message" data-participant-1="I" data-participant-2="T"><polygon fill="#6C757D" points="398.5684,566.293,408.5684,570.293,398.5684,574.293,402.5684,570.293" style="stroke:#6C757D;stroke-width:1;"/><line style="stroke:#6C757D;stroke-width:1;" x1="97.4453" x2="404.5684" y1="570.293" y2="570.293"/><text fill="#000000" font-family="Verdana" font-size="13" font-weight="bold" lengthAdjust="spacing" textLength="118.479" x="104.4453" y="565.2271">nb_transport_fw</text><text fill="#000000" font-family="Verdana" font-size="13" lengthAdjust="spacing" textLength="120.98" x="222.9243" y="565.2271">(CHI_DAT) : RETRY</text></g><path d="M415,513.3281 L415,613.3281 L790,613.3281 L790,523.3281 L780,513.3281 L415,513.3281" fill="#FFF3CD" style="stroke:#FFEAA7;stroke-width:1;"/><path d="M780,513.3281 L780,523.3281 L790,523.3281 L780,513.3281" fill="#FFF3CD" style="stroke:#FFEAA7;stroke-width:1;"/><text fill="#856404" font-family="Verdana" font-size="13" lengthAdjust="spacing" textLength="331.8364" x="421" y="530.395">For any given data, the initiator must always retry.</text><text fill="#856404" font-family="Verdana" font-size="13" lengthAdjust="spacing" textLength="325.2539" x="421" y="545.5278">The initiator may or may not retry the transaction</text><text fill="#856404" font-family="Verdana" font-size="13" lengthAdjust="spacing" textLength="73.0679" x="421" y="560.6606">right away.</text><text fill="#856404" font-family="Verdana" font-size="13" lengthAdjust="spacing" textLength="4.1323" x="421" y="575.7935">&#160;</text><text fill="#856404" font-family="Verdana" font-size="13" lengthAdjust="spacing" textLength="316.1323" x="421" y="590.9263">E.g. The initiator still attempts to send a request</text><text fill="#856404" font-family="Verdana" font-size="13" lengthAdjust="spacing" textLength="354.415" x="421" y="606.0591">w/o enough credit (can be used mainly for debugging)</text><rect fill="#FFFFFF" height="3" style="stroke:#FFFFFF;stroke-width:1;" width="820.9834" x="5" y="653.6914"/><line style="stroke:#000000;stroke-width:0.5;" x1="5" x2="825.9834" y1="653.6914" y2="653.6914"/><line style="stroke:#000000;stroke-width:0.5;" x1="5" x2="825.9834" y1="656.6914" y2="656.6914"/><rect fill="#FFFFFF" height="23.1328" style="stroke:#000000;stroke-width:1;" width="177.6235" x="326.6799" y="643.125"/><text fill="#000000" font-family="Verdana" font-size="13" font-weight="bold" lengthAdjust="spacing" textLength="159.0977" x="332.6799" y="659.1919">Backward Path Credit</text><g class="message" data-participant-1="I" data-participant-2="T"><polygon fill="#6C757D" points="398.5684,703.957,408.5684,707.957,398.5684,711.957,402.5684,707.957" style="stroke:#6C757D;stroke-width:1;"/><line style="stroke:#6C757D;stroke-width:1;stroke-dasharray:2.0,2.0;" x1="97.4453" x2="404.5684" y1="707.957" y2="707.957"/><text fill="#000000" font-family="Verdana" font-size="13" font-weight="bold" lengthAdjust="spacing" textLength="118.479" x="104.4453" y="702.8911">nb_transport_fw</text><text fill="#000000" font-family="Verdana" font-size="13" lengthAdjust="spacing" textLength="166.9941" x="222.9243" y="702.8911">(FW_CREDIT) : ACCEPTED</text></g><path d="M415,681.2578 L415,721.2578 L803,721.2578 L803,691.2578 L793,681.2578 L415,681.2578" fill="#FFF3CD" style="stroke:#FFEAA7;stroke-width:1;"/><path d="M793,681.2578 L793,691.2578 L803,691.2578 L793,681.2578" fill="#FFF3CD" style="stroke:#FFEAA7;stroke-width:1;"/><text fill="#856404" font-family="Verdana" font-size="13" lengthAdjust="spacing" textLength="367.5229" x="421" y="698.3247">This transaction will contain credit information for either</text><text fill="#856404" font-family="Verdana" font-size="13" lengthAdjust="spacing" textLength="283.1563" x="421" y="713.4575">CHI_RSP or CHI_DATA in the backward path</text><rect fill="#FFFFFF" height="3" style="stroke:#FFFFFF;stroke-width:1;" width="820.9834" x="5" y="747.0898"/><line style="stroke:#000000;stroke-width:0.5;" x1="5" x2="825.9834" y1="747.0898" y2="747.0898"/><line style="stroke:#000000;stroke-width:0.5;" x1="5" x2="825.9834" y1="750.0898" y2="750.0898"/><rect fill="#FFFFFF" height="23.1328" style="stroke:#000000;stroke-width:1;" width="226.9956" x="301.9939" y="736.5234"/><text fill="#000000" font-family="Verdana" font-size="13" font-weight="bold" lengthAdjust="spacing" textLength="208.4697" x="307.9939" y="752.5903">Backward Path Transactions</text><path d="M15,776.6563 L264.0708,776.6563 L264.0708,783.7891 L254.0708,793.7891 L15,793.7891 L15,776.6563" fill="#F1F3F4" style="stroke:#DADCE0;stroke-width:1;"/><rect fill="none" height="203" style="stroke:#DADCE0;stroke-width:1;" width="800.9834" x="15" y="776.6563"/><text fill="#000000" font-family="Verdana" font-size="13" font-weight="bold" lengthAdjust="spacing" textLength="204.0708" x="30" y="789.7231">CHI_RSP + tlm_txn_id Phase</text><path d="M25,800.7891 L89.4429,800.7891 L89.4429,807.9219 L79.4429,817.9219 L25,817.9219 L25,800.7891" fill="#F1F3F4" style="stroke:#DADCE0;stroke-width:1;"/><rect fill="none" height="171.8672" style="stroke:#DADCE0;stroke-width:1;" width="780.9834" x="25" y="800.7891"/><text fill="#000000" font-family="Verdana" font-size="13" font-weight="bold" lengthAdjust="spacing" textLength="19.4429" x="40" y="813.856">alt</text><text fill="#000000" font-family="Verdana" font-size="11" font-weight="bold" lengthAdjust="spacing" textLength="67.5361" x="104.4429" y="812.9995">[Accepted]</text><g class="message" data-participant-1="T" data-participant-2="I"><polygon fill="#6C757D" points="108.4453,835.0547,98.4453,839.0547,108.4453,843.0547,104.4453,839.0547" style="stroke:#6C757D;stroke-width:1;"/><line style="stroke:#6C757D;stroke-width:1;" x1="102.4453" x2="409.5684" y1="839.0547" y2="839.0547"/><text fill="#000000" font-family="Verdana" font-size="13" font-weight="bold" lengthAdjust="spacing" textLength="122.1289" x="114.4453" y="833.9888">nb_transport_bw</text><text fill="#000000" font-family="Verdana" font-size="13" lengthAdjust="spacing" textLength="146.3643" x="236.5742" y="833.9888">(CHI_RSP) : ACCEPTED</text></g><line style="stroke:#DADCE0;stroke-width:1;stroke-dasharray:2.0,2.0;" x1="25" x2="805.9834" y1="848.0547" y2="848.0547"/><text fill="#000000" font-family="Verdana" font-size="11" font-weight="bold" lengthAdjust="spacing" textLength="43.8389" x="30" y="858.2651">[Retry]</text><g class="message" data-participant-1="T" data-participant-2="I"><polygon fill="#6C757D" points="108.4453,919.8242,98.4453,923.8242,108.4453,927.8242,104.4453,923.8242" style="stroke:#6C757D;stroke-width:1;"/><line style="stroke:#6C757D;stroke-width:1;" x1="102.4453" x2="409.5684" y1="923.8242" y2="923.8242"/><text fill="#000000" font-family="Verdana" font-size="13" font-weight="bold" lengthAdjust="spacing" textLength="122.1289" x="114.4453" y="918.7583">nb_transport_bw</text><text fill="#000000" font-family="Verdana" font-size="13" lengthAdjust="spacing" textLength="119.2598" x="236.5742" y="918.7583">(CHI_RSP) : RETRY</text></g><path d="M415,866.8594 L415,966.8594 L790,966.8594 L790,876.8594 L780,866.8594 L415,866.8594" fill="#FFF3CD" style="stroke:#FFEAA7;stroke-width:1;"/><path d="M780,866.8594 L780,876.8594 L790,876.8594 L780,866.8594" fill="#FFF3CD" style="stroke:#FFEAA7;stroke-width:1;"/><text fill="#856404" font-family="Verdana" font-size="13" lengthAdjust="spacing" textLength="351.1079" x="421" y="883.9263">For any given response, the target must always retry.</text><text fill="#856404" font-family="Verdana" font-size="13" lengthAdjust="spacing" textLength="314.4756" x="421" y="899.0591">The target may or may not retry the transaction</text><text fill="#856404" font-family="Verdana" font-size="13" lengthAdjust="spacing" textLength="73.0679" x="421" y="914.1919">right away.</text><text fill="#856404" font-family="Verdana" font-size="13" lengthAdjust="spacing" textLength="4.1323" x="421" y="929.3247">&#160;</text><text fill="#856404" font-family="Verdana" font-size="13" lengthAdjust="spacing" textLength="305.354" x="421" y="944.4575">E.g. The target still attempts to send a request</text><text fill="#856404" font-family="Verdana" font-size="13" lengthAdjust="spacing" textLength="354.415" x="421" y="959.5903">w/o enough credit (can be used mainly for debugging)</text><path d="M15,993.6563 L264.8896,993.6563 L264.8896,1000.7891 L254.8896,1010.7891 L15,1010.7891 L15,993.6563" fill="#F1F3F4" style="stroke:#DADCE0;stroke-width:1;"/><rect fill="none" height="203" style="stroke:#DADCE0;stroke-width:1;" width="800.9834" x="15" y="993.6563"/><text fill="#000000" font-family="Verdana" font-size="13" font-weight="bold" lengthAdjust="spacing" textLength="204.8896" x="30" y="1006.7231">CHI_DAT + tlm_txn_id Phase</text><path d="M25,1017.7891 L89.4429,1017.7891 L89.4429,1024.9219 L79.4429,1034.9219 L25,1034.9219 L25,1017.7891" fill="#F1F3F4" style="stroke:#DADCE0;stroke-width:1;"/><rect fill="none" height="171.8672" style="stroke:#DADCE0;stroke-width:1;" width="780.9834" x="25" y="1017.7891"/><text fill="#000000" font-family="Verdana" font-size="13" font-weight="bold" lengthAdjust="spacing" textLength="19.4429" x="40" y="1030.856">alt</text><text fill="#000000" font-family="Verdana" font-size="11" font-weight="bold" lengthAdjust="spacing" textLength="67.5361" x="104.4429" y="1029.9995">[Accepted]</text><g class="message" data-participant-1="T" data-participant-2="I"><polygon fill="#6C757D" points="108.4453,1052.0547,98.4453,1056.0547,108.4453,1060.0547,104.4453,1056.0547" style="stroke:#6C757D;stroke-width:1;"/><line style="stroke:#6C757D;stroke-width:1;" x1="102.4453" x2="409.5684" y1="1056.0547" y2="1056.0547"/><text fill="#000000" font-family="Verdana" font-size="13" font-weight="bold" lengthAdjust="spacing" textLength="122.1289" x="114.4453" y="1050.9888">nb_transport_bw</text><text fill="#000000" font-family="Verdana" font-size="13" lengthAdjust="spacing" textLength="148.0845" x="236.5742" y="1050.9888">(CHI_DAT) : ACCEPTED</text></g><line style="stroke:#DADCE0;stroke-width:1;stroke-dasharray:2.0,2.0;" x1="25" x2="805.9834" y1="1065.0547" y2="1065.0547"/><text fill="#000000" font-family="Verdana" font-size="11" font-weight="bold" lengthAdjust="spacing" textLength="43.8389" x="30" y="1075.2651">[Retry]</text><g class="message" data-participant-1="T" data-participant-2="I"><polygon fill="#6C757D" points="108.4453,1136.8242,98.4453,1140.8242,108.4453,1144.8242,104.4453,1140.8242" style="stroke:#6C757D;stroke-width:1;"/><line style="stroke:#6C757D;stroke-width:1;" x1="102.4453" x2="409.5684" y1="1140.8242" y2="1140.8242"/><text fill="#000000" font-family="Verdana" font-size="13" font-weight="bold" lengthAdjust="spacing" textLength="122.1289" x="114.4453" y="1135.7583">nb_transport_bw</text><text fill="#000000" font-family="Verdana" font-size="13" lengthAdjust="spacing" textLength="120.98" x="236.5742" y="1135.7583">(CHI_DAT) : RETRY</text></g><path d="M415,1083.8594 L415,1183.8594 L790,1183.8594 L790,1093.8594 L780,1083.8594 L415,1083.8594" fill="#FFF3CD" style="stroke:#FFEAA7;stroke-width:1;"/><path d="M780,1083.8594 L780,1093.8594 L790,1093.8594 L780,1083.8594" fill="#FFF3CD" style="stroke:#FFEAA7;stroke-width:1;"/><text fill="#856404" font-family="Verdana" font-size="13" lengthAdjust="spacing" textLength="321.0581" x="421" y="1100.9263">For any given data, the target must always retry.</text><text fill="#856404" font-family="Verdana" font-size="13" lengthAdjust="spacing" textLength="314.4756" x="421" y="1116.0591">The target may or may not retry the transaction</text><text fill="#856404" font-family="Verdana" font-size="13" lengthAdjust="spacing" textLength="73.0679" x="421" y="1131.1919">right away.</text><text fill="#856404" font-family="Verdana" font-size="13" lengthAdjust="spacing" textLength="4.1323" x="421" y="1146.3247">&#160;</text><text fill="#856404" font-family="Verdana" font-size="13" lengthAdjust="spacing" textLength="305.354" x="421" y="1161.4575">E.g. The target still attempts to send a request</text><text fill="#856404" font-family="Verdana" font-size="13" lengthAdjust="spacing" textLength="354.415" x="421" y="1176.5903">w/o enough credit (can be used mainly for debugging)</text><!--SRC=[xLLTRzf047pthzWcBmajQHeW95MeH0bHaLef9PQgIfNGOk-PKyoTUpvAK9N_tlLXY0c4GFgXFiGFODZPkTsTzVY57T2G88bHAY-zbYf1WqFuwG5VVGok8wD7AcpfM1iO3wGb5s6KbO5CKDaSkmg_Aqx4gS2xk3OXcJmM4XtHyJmcjB9vf7fQEwpLNUJMVQRqVKGgeC9HQ8mUv_ZZe5whX_DGB0Lzb8hUBrNZhcNScggo_6IPw8seYEezq08BXW4T5ZfGsjBQGGbH2SBLWnA24Ekh1dLIEwuULlDZRZslgChEbUg8csQ8YINpJUrrbBGIhJRxEu0fT62NAk98XFUJFkcGOiRxQ2AoKx3FHLIe9cgUvpKQSA7D64q8bsW7q38KIWkDXjU1itAPiM-XL5BzdZMeqaGRs-kFIwMzYo-zLhTztl7t6T1ijTgNVllSStCnCXfOxi8Vo1HS6WPMQWLZ6SSGSB-yd11C3v9AQ3D45-Sx8CaRR3YxzQ7JwxO_0_-NtPut_IQ3WQCPpXMSSC4UgT39iToAVtTqcZNaT9tplWGR3tlsHlKaumUOJfy4Z2qqWu1up7VwTQ3yRjKaH3Q9d71X3baInIb1bwoPRCtJRVlTh_EiXQ7EBkuKK4qWaZz8WScUgDI-SkEHizM0uIYrtD4O9ob3k9A30eE_2CK9v5zytXJjs0e25f9TEO3CNAGitBOFeeDxHwGsqn-jfM5YUJCq6m6BXxFg2zdZrnf8wL4qcEt9Ne0A-WIZb4AkKgfuulObfFueYgIAzkVfyut8VsGhuXNKvrNQHFr2Eu_gnfH_HF-SPslzGxJuBFx3uhCrPAw_skRAQqJvDpPtTRdAvlgpYfTzRh6PDKR7pDiPtTd3bfyJRhRec_4ymUYOIAKqNNRhNcgFR_eCzxVMFEV_lmqkB_rfkcziS9ln_8R1FMi-r_mN]--></g></svg>